<?xml version="1.0" encoding="UTF-8" standalone="no"?>
<svg
   xmlns:osb="http://www.openswatchbook.org/uri/2009/osb"
   xmlns:dc="http://purl.org/dc/elements/1.1/"
   xmlns:cc="http://creativecommons.org/ns#"
   xmlns:rdf="http://www.w3.org/1999/02/22-rdf-syntax-ns#"
   xmlns:svg="http://www.w3.org/2000/svg"
   xmlns="http://www.w3.org/2000/svg"
   width="16"
   version="1.1"
   style="enable-background:new"
   id="svg7384"
   height="16">
  <metadata
     id="metadata90">
    <rdf:RDF>
      <cc:Work
         rdf:about="">
        <dc:format>image/svg+xml</dc:format>
        <dc:type
           rdf:resource="http://purl.org/dc/dcmitype/StillImage" />
        <dc:title>Moka Symbolic Icon Theme</dc:title>
      </cc:Work>
    </rdf:RDF>
  </metadata>
  <title
     id="title8473">Moka Symbolic Icon Theme</title>
  <defs
     id="defs7386">
    <linearGradient
       osb:paint="solid"
       id="linearGradient5606">
      <stop
         style="stop-color:#000000;stop-opacity:1;"
         offset="0"
         id="stop5608" />
    </linearGradient>
    <filter
       id="filter7554"
       color-interpolation-filters="sRGB">
      <feBlend
         mode="darken"
         in2="BackgroundImage"
         id="feBlend7556" />
    </filter>
  </defs>
  <g
     transform="translate(-341.00018,368.00336)"
     style="display:inline"
     id="layer9">
    <path
       style="color:#bebebe;display:inline;overflow:visible;visibility:visible;fill:#ffffff;fill-opacity:1;stroke:none;stroke-width:2;marker:none"
       id="path19592-2-3"
       d="m 348.83355,-364.67003 c 1.47819,-0.0981 2.78595,1.24809 2.86875,3 -9e-5,1.49479 -0.33994,2.04989 -1.43438,3.03334 -0.17183,0.15321 -0.29304,0.2673 -0.3375,0.33333 -0.0444,0.0662 -0.0281,0.0354 -0.0281,0.0333 0.006,0.56353 -0.42446,1.06667 -0.9,1.06667 -0.47553,0 -0.9063,-0.50314 -0.9,-1.06667 0,-0.53588 0.20182,-1.00631 0.42188,-1.33333 0.22006,-0.32708 0.44217,-0.55081 0.64687,-0.73334 0.18365,-0.17126 0.41475,-0.41017 0.61875,-0.7 0.0842,-0.11957 0.1161,-0.32817 0.1125,-0.46666 l 0,-0.0333 c -0.0284,-0.60079 -0.44933,-1.03371 -0.95625,-1 -0.50691,0.0337 -0.87219,0.46587 -0.84375,1.06666 l -1.8,0 c -0.0828,-1.75192 1.05307,-3.10176 2.53125,-3.2 z m 0.16875,8.53334 c 0.49705,0 0.9,0.47756 0.9,1.06666 0,0.5891 -0.40295,1.06667 -0.9,1.06667 -0.49705,0 -0.9,-0.47757 -0.9,-1.06667 0,-0.5891 0.40295,-1.06666 0.9,-1.06666 z" />
    <path
       id="path6156-1"
       d="m 347.20018,-366.94086 0,1.09375 c -0.64629,0 -1.3096,0 -1.94063,0 -0.25312,0.0503 -0.75937,0.25892 -0.75937,1.0625 l 0,10.71875 c 0,1.07143 0.9,1.0625 0.9,1.0625 l 7.2,0 c 0.9,0 0.9,-1.0625 0.9,-1.0625 l 0,-10.71875 c 0,0 0,-1.0625 -0.9,-1.0625 -0.59468,0 -1.19651,0 -1.8,0 l 0,-1.09375 -3.6,0 z m -1.18125,2.09375 c 1.90955,0 3.90983,-2e-5 5.85,0 0.72,0 0.73125,0.90625 0.73125,0.90625 l 0,9.03125 c 0,0 -0.0112,0.90625 -0.73125,0.90625 l -5.7375,0 c 0,0 -0.73125,-0.002 -0.73125,-0.90625 l 0,-9.03125 c 0,-0.67857 0.41625,-0.86375 0.61875,-0.90625 z"
       style="display:inline;fill:#ffffff;fill-opacity:1;stroke:none;enable-background:new" />
  </g>
  <g
     transform="translate(-341.00018,368.00336)"
     style="display:inline;filter:url(#filter7554)"
     id="layer10" />
  <g
     transform="translate(-99.999981,-248.99664)"
     style="display:inline"
     id="layer1" />
  <g
     transform="translate(-341.00018,368.00336)"
     style="display:inline"
     id="layer14" />
  <g
     transform="translate(-341.00018,368.00336)"
     style="display:inline"
     id="layer15" />
  <g
     transform="translate(-341.00018,368.00336)"
     style="display:inline"
     id="g71291" />
  <g
     transform="translate(-99.999981,-98.996641)"
     style="display:inline"
     id="layer2" />
  <g
     transform="translate(-99.999981,-98.996641)"
     style="display:inline"
     id="g6058" />
  <g
     transform="translate(-341.00018,368.00336)"
     style="display:inline"
     id="layer12" />
</svg>
