<?xml version="1.0" encoding="UTF-8" standalone="no"?>
<svg
   xmlns:osb="http://www.openswatchbook.org/uri/2009/osb"
   xmlns:dc="http://purl.org/dc/elements/1.1/"
   xmlns:cc="http://creativecommons.org/ns#"
   xmlns:rdf="http://www.w3.org/1999/02/22-rdf-syntax-ns#"
   xmlns:svg="http://www.w3.org/2000/svg"
   xmlns="http://www.w3.org/2000/svg"
   width="16"
   version="1.1"
   style="enable-background:new"
   id="svg7384"
   height="16">
  <metadata
     id="metadata90">
    <rdf:RDF>
      <cc:Work
         rdf:about="">
        <dc:format>image/svg+xml</dc:format>
        <dc:type
           rdf:resource="http://purl.org/dc/dcmitype/StillImage" />
        <dc:title>Moka Symbolic Icon Theme</dc:title>
      </cc:Work>
    </rdf:RDF>
  </metadata>
  <title
     id="title8473">Moka Symbolic Icon Theme</title>
  <defs
     id="defs7386">
    <linearGradient
       osb:paint="solid"
       id="linearGradient5606">
      <stop
         style="stop-color:#000000;stop-opacity:1;"
         offset="0"
         id="stop5608" />
    </linearGradient>
    <filter
       id="filter7554"
       color-interpolation-filters="sRGB">
      <feBlend
         mode="darken"
         in2="BackgroundImage"
         id="feBlend7556" />
    </filter>
  </defs>
  <g
     transform="translate(-321.0002,368.00336)"
     style="display:inline"
     id="layer9">
    <path
       style="fill:#ff0000;fill-opacity:1;stroke:none"
       id="path6033"
       d="m 324.5002,-357.30456 0,3.2259 c 0,1.0753 0.9,1.0753 0.9,1.0753 l 7.2,0 c 0.9,0 0.9,-1.0753 0.9,-1.0753 l 0,-3.2259 -9,0 z"
       class="error" />
    <path
       id="path6156-1"
       d="m 327.2002,-367.00336 0,1.09797 c -0.64629,0 -1.3096,0 -1.94063,0 -0.25312,0.0505 -0.75937,0.25991 -0.75937,1.06659 l 0,10.76006 c 0,1.07556 0.9,1.0666 0.9,1.0666 l 7.2,0 c 0.9,0 0.9,-1.0666 0.9,-1.0666 l 0,-10.76006 c 0,0 0,-1.06659 -0.9,-1.06659 -0.59468,0 -1.19651,0 -1.8,0 l 0,-1.09797 -3.6,0 z m -1.18125,2.10182 c 1.90955,0 3.90983,-2e-5 5.85,0 0.72,0 0.73125,0.90974 0.73125,0.90974 l 0,9.06606 c 0,0 -0.0112,0.90974 -0.73125,0.90974 l -5.7375,0 c 0,0 -0.73125,-0.002 -0.73125,-0.90974 l 0,-9.06606 c 0,-0.68118 0.41625,-0.86708 0.61875,-0.90974 z"
       style="display:inline;fill:#ffffff;fill-opacity:1;stroke:none;enable-background:new" />
  </g>
  <g
     transform="translate(-321.0002,368.00336)"
     style="display:inline;filter:url(#filter7554)"
     id="layer10" />
  <g
     transform="translate(-79.999998,-248.99664)"
     style="display:inline"
     id="layer1" />
  <g
     transform="translate(-321.0002,368.00336)"
     style="display:inline"
     id="layer14" />
  <g
     transform="translate(-321.0002,368.00336)"
     style="display:inline"
     id="layer15" />
  <g
     transform="translate(-321.0002,368.00336)"
     style="display:inline"
     id="g71291" />
  <g
     transform="translate(-79.999998,-98.99664)"
     style="display:inline"
     id="layer2" />
  <g
     transform="translate(-79.999998,-98.99664)"
     style="display:inline"
     id="g6058" />
  <g
     transform="translate(-321.0002,368.00336)"
     style="display:inline"
     id="layer12" />
</svg>
