<?xml version="1.0" encoding="UTF-8" standalone="no"?>
<svg
   xmlns:osb="http://www.openswatchbook.org/uri/2009/osb"
   xmlns:dc="http://purl.org/dc/elements/1.1/"
   xmlns:cc="http://creativecommons.org/ns#"
   xmlns:rdf="http://www.w3.org/1999/02/22-rdf-syntax-ns#"
   xmlns:svg="http://www.w3.org/2000/svg"
   xmlns="http://www.w3.org/2000/svg"
   width="16"
   version="1.1"
   style="enable-background:new"
   id="svg7384"
   height="16">
  <metadata
     id="metadata90">
    <rdf:RDF>
      <cc:Work
         rdf:about="">
        <dc:format>image/svg+xml</dc:format>
        <dc:type
           rdf:resource="http://purl.org/dc/dcmitype/StillImage" />
        <dc:title>Moka Symbolic Icon Theme</dc:title>
      </cc:Work>
    </rdf:RDF>
  </metadata>
  <title
     id="title8473">Moka Symbolic Icon Theme</title>
  <defs
     id="defs7386">
    <linearGradient
       osb:paint="solid"
       id="linearGradient5606">
      <stop
         style="stop-color:#000000;stop-opacity:1;"
         offset="0"
         id="stop5608" />
    </linearGradient>
    <filter
       id="filter7554"
       color-interpolation-filters="sRGB">
      <feBlend
         mode="darken"
         in2="BackgroundImage"
         id="feBlend7556" />
    </filter>
  </defs>
  <g
     transform="translate(-281.0002,368.00336)"
     style="display:inline"
     id="layer9">
    <path
       id="path6020"
       d="m 287.19834,-367.0033 0,1.09865 -1.93929,0 c -0.25295,0.0505 -0.75885,0.26008 -0.75885,1.06726 l 0,3.23317 0,7.5336 c 0,0.1345 0.004,0.24232 0.0281,0.34529 0.002,0.009 -0.002,0.0229 0,0.0314 0.0771,0.29148 0.25817,0.46727 0.42159,0.56502 0.22484,0.13229 0.44969,0.12556 0.44969,0.12556 l 7.19504,0 c 0.3279,0 0.54215,-0.13215 0.67454,-0.3139 0.005,-0.007 -0.005,-0.0246 0,-0.0314 0.12516,-0.17968 0.2017,-0.38297 0.22484,-0.53363 0.003,-0.0167 -0.002,-0.0167 0,-0.0314 0.014,-0.10087 0,-0.15695 0,-0.15695 l 0,-7.5336 0,-3.23317 c 0,0 0,-1.06726 -0.89938,-1.06726 l -1.79876,0 0,-1.09865 -3.59752,0 z m -1.18043,2.10313 c 1.90823,0 3.90714,-2e-5 5.84597,0 0.71951,0 0.73075,0.91031 0.73075,0.91031 l 0,2.38564 -7.19505,0 0,-2.38564 c 0,-0.68161 0.41596,-0.86762 0.61833,-0.91031 z"
       style="fill:#ffffff;fill-opacity:1;stroke:none" />
  </g>
  <g
     transform="translate(-281.0002,368.00336)"
     style="display:inline;filter:url(#filter7554)"
     id="layer10" />
  <g
     transform="translate(-39.999998,-248.99664)"
     style="display:inline"
     id="layer1" />
  <g
     transform="translate(-281.0002,368.00336)"
     style="display:inline"
     id="layer14" />
  <g
     transform="translate(-281.0002,368.00336)"
     style="display:inline"
     id="layer15" />
  <g
     transform="translate(-281.0002,368.00336)"
     style="display:inline"
     id="g71291" />
  <g
     transform="translate(-39.999998,-98.99664)"
     style="display:inline"
     id="layer2" />
  <g
     transform="translate(-39.999998,-98.99664)"
     style="display:inline"
     id="g6058" />
  <g
     transform="translate(-281.0002,368.00336)"
     style="display:inline"
     id="layer12" />
</svg>
