<?xml version="1.0" encoding="UTF-8" standalone="no"?>
<!-- Created with Inkscape (http://www.inkscape.org/) -->

<svg
   xmlns:osb="http://www.openswatchbook.org/uri/2009/osb"
   xmlns:dc="http://purl.org/dc/elements/1.1/"
   xmlns:cc="http://creativecommons.org/ns#"
   xmlns:rdf="http://www.w3.org/1999/02/22-rdf-syntax-ns#"
   xmlns:svg="http://www.w3.org/2000/svg"
   xmlns="http://www.w3.org/2000/svg"
   xmlns:sodipodi="http://sodipodi.sourceforge.net/DTD/sodipodi-0.dtd"
   xmlns:inkscape="http://www.inkscape.org/namespaces/inkscape"
   sodipodi:docname="battery-missing.svg"
   inkscape:export-filename="/home/sam/img/source-symbolic.png"
   inkscape:export-xdpi="270"
   inkscape:export-ydpi="270"
   height="16"
   id="svg7384"
   style="enable-background:new"
   version="1.1"
   inkscape:version="0.48.5 r10040"
   width="16">
  <sodipodi:namedview
     inkscape:bbox-nodes="true"
     inkscape:bbox-paths="true"
     bordercolor="#666666"
     borderlayer="false"
     borderopacity="1"
     inkscape:current-layer="layer9"
     inkscape:cx="13.258418"
     inkscape:cy="3.2145945"
     gridtolerance="10"
     inkscape:guide-bbox="true"
     guidetolerance="10"
     id="namedview88"
     inkscape:object-nodes="true"
     inkscape:object-paths="true"
     objecttolerance="10"
     pagecolor="#333333"
     inkscape:pageopacity="1"
     inkscape:pageshadow="2"
     showborder="true"
     showgrid="false"
     showguides="true"
     inkscape:showpageshadow="true"
     inkscape:snap-bbox="true"
     inkscape:snap-bbox-edge-midpoints="false"
     inkscape:snap-bbox-midpoints="false"
     inkscape:snap-center="false"
     inkscape:snap-global="true"
     inkscape:snap-grids="true"
     inkscape:snap-intersection-paths="true"
     inkscape:snap-midpoints="true"
     inkscape:snap-nodes="true"
     inkscape:snap-object-midpoints="true"
     inkscape:snap-others="true"
     inkscape:snap-page="false"
     inkscape:snap-smooth-nodes="true"
     inkscape:snap-to-guides="true"
     inkscape:window-height="752"
     inkscape:window-maximized="1"
     inkscape:window-width="1366"
     inkscape:window-x="0"
     inkscape:window-y="0"
     inkscape:zoom="8">
    <inkscape:grid
       color="#000000"
       dotted="false"
       empcolor="#0800ff"
       empopacity="0.4627451"
       empspacing="4"
       enabled="true"
       id="grid4866"
       opacity="0.16470588"
       originx="-99.999981px"
       originy="-585.00336px"
       snapvisiblegridlinesonly="true"
       spacingx="0.25px"
       spacingy="0.25px"
       type="xygrid"
       visible="true" />
  </sodipodi:namedview>
  <metadata
     id="metadata90">
    <rdf:RDF>
      <cc:Work
         rdf:about="">
        <dc:format>image/svg+xml</dc:format>
        <dc:type
           rdf:resource="http://purl.org/dc/dcmitype/StillImage" />
        <dc:title>Moka Symbolic Icon Theme</dc:title>
      </cc:Work>
    </rdf:RDF>
  </metadata>
  <title
     id="title8473">Moka Symbolic Icon Theme</title>
  <defs
     id="defs7386">
    <linearGradient
       id="linearGradient5606"
       osb:paint="solid">
      <stop
         id="stop5608"
         offset="0"
         style="stop-color:#000000;stop-opacity:1;" />
    </linearGradient>
    <filter
       inkscape:collect="always"
       color-interpolation-filters="sRGB"
       id="filter7554">
      <feBlend
         inkscape:collect="always"
         id="feBlend7556"
         in2="BackgroundImage"
         mode="darken" />
    </filter>
  </defs>
  <g
     inkscape:groupmode="layer"
     id="layer9"
     inkscape:label="status"
     style="display:inline"
     transform="translate(-341.00018,368.00336)">
    <path
       inkscape:connector-curvature="0"
       d="m 348.8127,-364.66586 c 1.64243,-0.0981 3.0955,1.24809 3.1875,3 -1e-4,1.49479 -0.37771,2.04989 -1.59375,3.03334 -0.19093,0.15321 -0.3256,0.2673 -0.375,0.33333 -0.0494,0.0662 -0.0312,0.0354 -0.0312,0.0333 0.007,0.56353 -0.47163,1.06667 -1,1.06667 -0.52837,0 -1.007,-0.50314 -1,-1.06667 0,-0.53588 0.22424,-1.00631 0.46875,-1.33333 0.24451,-0.32708 0.4913,-0.55081 0.71875,-0.73334 0.20405,-0.17126 0.46083,-0.41017 0.6875,-0.7 0.0935,-0.11957 0.129,-0.32817 0.125,-0.46666 l 0,-0.0333 c -0.0316,-0.60079 -0.49926,-1.03371 -1.0625,-1 -0.56324,0.0337 -0.9691,0.46587 -0.9375,1.06666 l -2,0 c -0.092,-1.75192 1.17007,-3.10176 2.8125,-3.2 z m 0.1875,8.53334 c 0.55228,0 1,0.47756 1,1.06666 0,0.5891 -0.44772,1.06667 -1,1.06667 -0.55228,0 -1,-0.47757 -1,-1.06667 0,-0.5891 0.44772,-1.06666 1,-1.06666 z"
       id="path19592-2-3"
       sodipodi:nodetypes="cccccsccccccsccccsssss"
       style="color:#bebebe;fill:#ffffff;fill-opacity:1;stroke:none;stroke-width:2;marker:none;visibility:visible;display:inline;overflow:visible" />
    <path
       inkscape:connector-curvature="0"
       style="fill:#ffffff;fill-opacity:1;stroke:none;display:inline;enable-background:new"
       d="m 347.0002,-366.93669 0,1.09375 c -0.7181,0 -1.45511,0 -2.15625,0 -0.28125,0.0503 -0.84375,0.25892 -0.84375,1.0625 l 0,10.71875 c 0,1.07143 1,1.0625 1,1.0625 l 8,0 c 1,0 1,-1.0625 1,-1.0625 l 0,-10.71875 c 0,0 0,-1.0625 -1,-1.0625 -0.66076,0 -1.32945,0 -2,0 l 0,-1.09375 -4,0 z m -1.3125,2.09375 c 2.12172,0 4.34426,-2e-5 6.5,0 0.8,0 0.8125,0.90625 0.8125,0.90625 l 0,9.03125 c 0,0 -0.0125,0.90625 -0.8125,0.90625 l -6.375,0 c 0,0 -0.8125,-0.002 -0.8125,-0.90625 l 0,-9.03125 c 0,-0.67857 0.4625,-0.86375 0.6875,-0.90625 z"
       id="path6156-1" />
  </g>
  <g
     inkscape:groupmode="layer"
     id="layer10"
     inkscape:label="devices"
     style="display:inline;filter:url(#filter7554)"
     transform="translate(-341.00018,368.00336)" />
  <g
     inkscape:groupmode="layer"
     id="layer1"
     inkscape:label="places"
     style="display:inline"
     transform="translate(-99.999981,-248.99664)" />
  <g
     inkscape:groupmode="layer"
     id="layer14"
     inkscape:label="mimetypes"
     style="display:inline"
     transform="translate(-341.00018,368.00336)" />
  <g
     inkscape:groupmode="layer"
     id="layer15"
     inkscape:label="emblems"
     style="display:inline"
     transform="translate(-341.00018,368.00336)" />
  <g
     inkscape:groupmode="layer"
     id="g71291"
     inkscape:label="emotes"
     style="display:inline"
     transform="translate(-341.00018,368.00336)" />
  <g
     inkscape:groupmode="layer"
     id="layer2"
     inkscape:label="categories"
     style="display:inline"
     transform="translate(-99.999981,-98.996641)" />
  <g
     inkscape:groupmode="layer"
     id="g6058"
     inkscape:label="apps"
     style="display:inline"
     transform="translate(-99.999981,-98.996641)" />
  <g
     inkscape:groupmode="layer"
     id="layer12"
     inkscape:label="actions"
     style="display:inline"
     transform="translate(-341.00018,368.00336)" />
</svg>
