<?xml version="1.0" encoding="UTF-8" standalone="no"?>
<svg
   xmlns:osb="http://www.openswatchbook.org/uri/2009/osb"
   xmlns:dc="http://purl.org/dc/elements/1.1/"
   xmlns:cc="http://creativecommons.org/ns#"
   xmlns:rdf="http://www.w3.org/1999/02/22-rdf-syntax-ns#"
   xmlns:svg="http://www.w3.org/2000/svg"
   xmlns="http://www.w3.org/2000/svg"
   width="16"
   version="1.1"
   style="enable-background:new"
   id="svg7384"
   height="16">
  <metadata
     id="metadata90">
    <rdf:RDF>
      <cc:Work
         rdf:about="">
        <dc:format>image/svg+xml</dc:format>
        <dc:type
           rdf:resource="http://purl.org/dc/dcmitype/StillImage" />
        <dc:title>Moka Symbolic Icon Theme</dc:title>
      </cc:Work>
    </rdf:RDF>
  </metadata>
  <title
     id="title8473">Moka Symbolic Icon Theme</title>
  <defs
     id="defs7386">
    <linearGradient
       osb:paint="solid"
       id="linearGradient5606">
      <stop
         style="stop-color:#000000;stop-opacity:1;"
         offset="0"
         id="stop5608" />
    </linearGradient>
    <filter
       id="filter7554"
       color-interpolation-filters="sRGB">
      <feBlend
         mode="darken"
         in2="BackgroundImage"
         id="feBlend7556" />
    </filter>
  </defs>
  <g
     transform="translate(-361.00018,368.00336)"
     style="display:inline"
     id="layer9">
    <path
       id="path6156-1"
       d="m 367.26942,-367.00336 0,1.09695 c -0.66287,0 -1.34319,0 -1.99039,0 -0.25962,0.0505 -0.77885,0.25968 -0.77885,1.06561 l 0,10.7501 c 0,1.07457 0.92308,1.06561 0.92308,1.06561 l 7.38463,0 c 0.92307,0 0.92307,-1.06561 0.92307,-1.06561 l 0,-10.7501 c 0,0 0,-1.06561 -0.92307,-1.06561 -0.60994,0 -1.22719,0 -1.84616,0 l 0,-1.09695 -3.69231,0 z m -1.21155,2.09987 c 1.95852,0 4.0101,-2e-5 6.00001,0 0.73847,0 0.75001,0.90891 0.75001,0.90891 l 0,9.05766 c 0,0 -0.0115,0.9089 -0.75001,0.9089 l -5.88462,0 c 0,0 -0.75,-0.002 -0.75,-0.9089 l 0,-9.05766 c 0,-0.68056 0.42692,-0.86628 0.63461,-0.90891 z"
       style="display:inline;fill:#ff0000;fill-opacity:1;stroke:none;enable-background:new" />
    <path
       style="fill:#ff0000;fill-opacity:1;stroke:none"
       id="path7562"
       d="m 374.45931,-363.82952 0,5.91308 0.25511,2.36523 1.53065,0 0.25511,-2.36523 0,-5.91308 z m 0,9.46093 0,2.36523 2.04087,0 0,-2.36523 z"
       class="error" />
  </g>
  <g
     transform="translate(-361.00018,368.00336)"
     style="display:inline;filter:url(#filter7554)"
     id="layer10" />
  <g
     transform="translate(-119.99998,-248.99664)"
     style="display:inline"
     id="layer1" />
  <g
     transform="translate(-361.00018,368.00336)"
     style="display:inline"
     id="layer14" />
  <g
     transform="translate(-361.00018,368.00336)"
     style="display:inline"
     id="layer15" />
  <g
     transform="translate(-361.00018,368.00336)"
     style="display:inline"
     id="g71291" />
  <g
     transform="translate(-119.99998,-98.996643)"
     style="display:inline"
     id="layer2" />
  <g
     transform="translate(-119.99998,-98.996643)"
     style="display:inline"
     id="g6058" />
  <g
     transform="translate(-361.00018,368.00336)"
     style="display:inline"
     id="layer12" />
</svg>
