<?xml version="1.0" encoding="UTF-8" standalone="no"?>
<svg
   xmlns:osb="http://www.openswatchbook.org/uri/2009/osb"
   xmlns:dc="http://purl.org/dc/elements/1.1/"
   xmlns:cc="http://creativecommons.org/ns#"
   xmlns:rdf="http://www.w3.org/1999/02/22-rdf-syntax-ns#"
   xmlns:svg="http://www.w3.org/2000/svg"
   xmlns="http://www.w3.org/2000/svg"
   width="16"
   version="1.1"
   style="enable-background:new"
   id="svg7384"
   height="16">
  <metadata
     id="metadata90">
    <rdf:RDF>
      <cc:Work
         rdf:about="">
        <dc:format>image/svg+xml</dc:format>
        <dc:type
           rdf:resource="http://purl.org/dc/dcmitype/StillImage" />
        <dc:title>Moka Symbolic Icon Theme</dc:title>
      </cc:Work>
    </rdf:RDF>
  </metadata>
  <title
     id="title8473">Moka Symbolic Icon Theme</title>
  <defs
     id="defs7386">
    <linearGradient
       osb:paint="solid"
       id="linearGradient5606">
      <stop
         style="stop-color:#000000;stop-opacity:1;"
         offset="0"
         id="stop5608" />
    </linearGradient>
    <filter
       id="filter7554"
       color-interpolation-filters="sRGB">
      <feBlend
         mode="darken"
         in2="BackgroundImage"
         id="feBlend7556" />
    </filter>
  </defs>
  <g
     transform="translate(-301.0002,368.00336)"
     style="display:inline"
     id="layer9">
    <path
       id="path6030"
       d="m 307.19833,-366.94086 0,1.09375 -1.93928,0 c -0.25295,0.0503 -0.75885,0.25892 -0.75885,1.0625 l 0,5.34375 0,5.375 c 0,0.1339 0.004,0.24124 0.0281,0.34375 0.0704,0.32292 0.24829,0.49225 0.42158,0.59375 0.22484,0.1317 0.44969,0.125 0.44969,0.125 l 7.195,0 c 0.22484,0 0.37942,-0.0558 0.5059,-0.15625 0.07,-0.0552 0.12206,-0.1176 0.16863,-0.1875 0.0439,-0.0628 0.0843,-0.12055 0.11242,-0.1875 0.0656,-0.15495 0.10104,-0.27278 0.11242,-0.375 0.0141,-0.10042 0,-0.15625 0,-0.15625 l 0,-5.375 0,-5.34375 c 0,0 0,-1.0625 -0.89937,-1.0625 l -1.79875,0 0,-1.09375 -3.5975,0 z m -1.18043,2.09375 c 1.90822,0 3.90712,-2e-5 5.84594,0 0.7195,0 0.73074,0.90625 0.73074,0.90625 l 0,4.5 -7.195,0 0,-4.5 c 0,-0.67857 0.41596,-0.86375 0.61832,-0.90625 z"
       style="fill:#ffffff;fill-opacity:1;stroke:none" />
  </g>
  <g
     transform="translate(-301.0002,368.00336)"
     style="display:inline;filter:url(#filter7554)"
     id="layer10" />
  <g
     transform="translate(-59.999998,-248.99664)"
     style="display:inline"
     id="layer1" />
  <g
     transform="translate(-301.0002,368.00336)"
     style="display:inline"
     id="layer14" />
  <g
     transform="translate(-301.0002,368.00336)"
     style="display:inline"
     id="layer15" />
  <g
     transform="translate(-301.0002,368.00336)"
     style="display:inline"
     id="g71291" />
  <g
     transform="translate(-59.999998,-98.99664)"
     style="display:inline"
     id="layer2" />
  <g
     transform="translate(-59.999998,-98.99664)"
     style="display:inline"
     id="g6058" />
  <g
     transform="translate(-301.0002,368.00336)"
     style="display:inline"
     id="layer12" />
</svg>
