<?xml version="1.0" encoding="UTF-8" standalone="no"?>
<svg
   xmlns:osb="http://www.openswatchbook.org/uri/2009/osb"
   xmlns:dc="http://purl.org/dc/elements/1.1/"
   xmlns:cc="http://creativecommons.org/ns#"
   xmlns:rdf="http://www.w3.org/1999/02/22-rdf-syntax-ns#"
   xmlns:svg="http://www.w3.org/2000/svg"
   xmlns="http://www.w3.org/2000/svg"
   width="16"
   version="1.1"
   style="enable-background:new"
   id="svg7384"
   height="16">
  <metadata
     id="metadata90">
    <rdf:RDF>
      <cc:Work
         rdf:about="">
        <dc:format>image/svg+xml</dc:format>
        <dc:type
           rdf:resource="http://purl.org/dc/dcmitype/StillImage" />
        <dc:title>Moka Symbolic Icon Theme</dc:title>
      </cc:Work>
    </rdf:RDF>
  </metadata>
  <title
     id="title8473">Moka Symbolic Icon Theme</title>
  <defs
     id="defs7386">
    <linearGradient
       osb:paint="solid"
       id="linearGradient5606">
      <stop
         style="stop-color:#000000;stop-opacity:1;"
         offset="0"
         id="stop5608" />
    </linearGradient>
    <filter
       id="filter7554"
       color-interpolation-filters="sRGB">
      <feBlend
         mode="darken"
         in2="BackgroundImage"
         id="feBlend7556" />
    </filter>
  </defs>
  <g
     transform="translate(-421.0002,368.00336)"
     style="display:inline"
     id="layer9">
    <path
       id="path6091"
       d="m 427.26943,-367.00336 0,1.09833 -1.99038,0 c -0.25962,0.0505 -0.77885,0.26 -0.77885,1.06694 l 0,3.23222 0,7.53138 c 0,0.26898 0.0577,0.44577 0.14423,0.59623 0.004,0.007 -0.004,0.0244 0,0.0314 0.0403,0.0656 0.0955,0.11001 0.14423,0.1569 0.16528,0.16924 0.35632,0.225 0.49039,0.25105 0.0865,0.016 0.14423,0.0314 0.14423,0.0314 l 7.18269,0 0,-1.00419 -3.375,0 4.5,-8.75523 0,-2.07113 c 0,0 0,-1.06694 -0.92308,-1.06694 l -1.84615,0 0,-1.09833 -3.69231,0 z m -1.21154,2.10251 c 1.95851,0 4.01009,-2e-5 6,0 0.73846,0 0.75,0.91004 0.75,0.91004 l 0,2.38494 -7.38461,0 0,-2.38494 c 0,-0.68141 0.42692,-0.86736 0.63461,-0.91004 z"
       style="display:inline;fill:#ffffff;fill-opacity:1;stroke:none;enable-background:new" />
    <path
       style="display:inline;fill:#ffffff;fill-opacity:1;stroke:none;enable-background:new"
       id="path6156-2"
       d="m 433.73097,-360.61065 0,3.22774 2.76923,0 -2.76923,5.37955 0,-3.22773 -2.76923,0 z" />
  </g>
  <g
     transform="translate(-421.0002,368.00336)"
     style="display:inline;filter:url(#filter7554)"
     id="layer10" />
  <g
     transform="translate(-180,-248.99664)"
     style="display:inline"
     id="layer1" />
  <g
     transform="translate(-421.0002,368.00336)"
     style="display:inline"
     id="layer14" />
  <g
     transform="translate(-421.0002,368.00336)"
     style="display:inline"
     id="layer15" />
  <g
     transform="translate(-421.0002,368.00336)"
     style="display:inline"
     id="g71291" />
  <g
     transform="translate(-180,-98.996641)"
     style="display:inline"
     id="layer2" />
  <g
     transform="translate(-180,-98.996641)"
     style="display:inline"
     id="g6058" />
  <g
     transform="translate(-421.0002,368.00336)"
     style="display:inline"
     id="layer12" />
</svg>
