<?xml version="1.0" encoding="UTF-8" standalone="no"?>
<svg
   xmlns:osb="http://www.openswatchbook.org/uri/2009/osb"
   xmlns:dc="http://purl.org/dc/elements/1.1/"
   xmlns:cc="http://creativecommons.org/ns#"
   xmlns:rdf="http://www.w3.org/1999/02/22-rdf-syntax-ns#"
   xmlns:svg="http://www.w3.org/2000/svg"
   xmlns="http://www.w3.org/2000/svg"
   width="16"
   version="1.1"
   style="enable-background:new"
   id="svg7384"
   height="16">
  <metadata
     id="metadata90">
    <rdf:RDF>
      <cc:Work
         rdf:about="">
        <dc:format>image/svg+xml</dc:format>
        <dc:type
           rdf:resource="http://purl.org/dc/dcmitype/StillImage" />
        <dc:title>Moka Symbolic Icon Theme</dc:title>
      </cc:Work>
    </rdf:RDF>
  </metadata>
  <title
     id="title8473">Moka Symbolic Icon Theme</title>
  <defs
     id="defs7386">
    <linearGradient
       osb:paint="solid"
       id="linearGradient5606">
      <stop
         style="stop-color:#000000;stop-opacity:1;"
         offset="0"
         id="stop5608" />
    </linearGradient>
    <filter
       id="filter7554"
       color-interpolation-filters="sRGB">
      <feBlend
         mode="darken"
         in2="BackgroundImage"
         id="feBlend7556" />
    </filter>
  </defs>
  <g
     transform="translate(-381.0002,368.00336)"
     style="display:inline"
     id="layer9">
    <path
       id="path6156-1"
       d="m 387.26943,-367.00336 0,1.09833 -1.99038,0 c -0.25962,0.0505 -0.77885,0.26 -0.77885,1.06694 l 0,10.7636 c 0,1.07591 0.92308,1.06695 0.92308,1.06695 l 7.18269,0 0,-1.00419 -3.375,0 4.5,-8.75523 0,-2.07113 c 0,0 0,-1.06694 -0.92308,-1.06694 l -1.84615,0 0,-1.09833 -3.69231,0 z"
       style="display:inline;fill:#ffffff;fill-opacity:1;stroke:none;enable-background:new" />
    <path
       style="display:inline;fill:#ffffff;fill-opacity:1;stroke:none;enable-background:new"
       id="path6156-2"
       d="m 393.73097,-360.61065 0,3.22774 2.76923,0 -2.76923,5.37955 0,-3.22773 -2.76923,0 z" />
  </g>
  <g
     transform="translate(-381.0002,368.00336)"
     style="display:inline;filter:url(#filter7554)"
     id="layer10" />
  <g
     transform="translate(-140,-248.99664)"
     style="display:inline"
     id="layer1" />
  <g
     transform="translate(-381.0002,368.00336)"
     style="display:inline"
     id="layer14" />
  <g
     transform="translate(-381.0002,368.00336)"
     style="display:inline"
     id="layer15" />
  <g
     transform="translate(-381.0002,368.00336)"
     style="display:inline"
     id="g71291" />
  <g
     transform="translate(-140,-98.996641)"
     style="display:inline"
     id="layer2" />
  <g
     transform="translate(-140,-98.996641)"
     style="display:inline"
     id="g6058" />
  <g
     transform="translate(-381.0002,368.00336)"
     style="display:inline"
     id="layer12" />
</svg>
