<?xml version="1.0" encoding="UTF-8" standalone="no"?>
<svg
   xmlns:dc="http://purl.org/dc/elements/1.1/"
   xmlns:cc="http://creativecommons.org/ns#"
   xmlns:rdf="http://www.w3.org/1999/02/22-rdf-syntax-ns#"
   xmlns:svg="http://www.w3.org/2000/svg"
   xmlns="http://www.w3.org/2000/svg"
   version="1.1"
   width="16"
   height="16">
  <path
     d="m 6.71875,1.65625 c -1.6272944,0 -2.9375,1.3102057 -2.9375,2.9375 0,0.1507469 0.040522,0.3239479 0.0625,0.46875 C 2.3875953,5.2435206 1.25,6.4651085 1.25,7.96875 c 0,0.8292022 0.3526626,1.587265 0.90625,2.125 l 2.125,-1.40625 0.1875,2.25 1.71875,0 C 6.2890797,10.876038 6.4250029,10.796858 6.5,10.75 l 3.125,-2.0625 0.1875,2.25 1.71875,0 c 0.10158,-0.06146 0.237503,-0.140642 0.3125,-0.1875 L 14.6875,8.84375 C 14.713667,8.6982685 14.75,8.5590661 14.75,8.40625 14.75,7.0121379 13.612862,5.875 12.21875,5.875 c -0.147054,0 -0.265915,0.03818 -0.40625,0.0625 -0.08458,-0.9678304 -0.917585,-1.75 -1.90625,-1.75 -0.08422,0 -0.168646,0.02062 -0.25,0.03125 C 9.463925,2.7749438 8.2136184,1.65625 6.71875,1.65625 z"
     style="fill:#ffffff" />
  <path
     d="m 9.0190088,10.038266 c -2.1291317,1.399623 0,0 -2.1291317,1.399623 -0.2682066,0.167577 -0.8493054,0.469452 -1.072956,0.930999 -0.4473027,0.923094 -0.05789,2.04469 0.8652017,2.491991 0.9230945,0.447303 2.0446909,0.0579 2.4919937,-0.8652 0.2236512,-0.461546 0.09917,-1.053939 0.065796,-1.419039 -0.2209039,-2.538374 0,0 -0.2209039,-2.538374 z"
     style="fill:#ffffff" />
  <path
     d="m 3.6172658,10.038266 c -2.1291317,1.399623 0,0 -2.1291317,1.399623 -0.2682066,0.167577 -0.84930537,0.469452 -1.07295594,0.930999 -0.44730265,0.923094 -0.0578905,2.04469 0.86520174,2.491991 0.9230945,0.447303 2.0446909,0.0579 2.4919936,-0.8652 0.2236511,-0.461546 0.099171,-1.053939 0.065796,-1.419039 -0.220904,-2.538374 0,0 -0.220904,-2.538374 z"
     style="fill:#ffffff" />
  <path
     d="m 14.420752,10.038266 c -2.129132,1.399623 0,0 -2.129132,1.399623 -0.268207,0.167577 -0.849305,0.469452 -1.072956,0.930999 -0.447303,0.923094 -0.05788,2.04469 0.865202,2.491991 0.923094,0.447303 2.044691,0.0579 2.491995,-0.8652 0.223649,-0.461546 0.09918,-1.053939 0.06579,-1.419039 -0.220906,-2.538374 0,0 -0.220906,-2.538374 z"
     style="fill:#ffffff" />
</svg>
