<?xml version="1.0" encoding="UTF-8" standalone="no"?>
<svg
   xmlns:dc="http://purl.org/dc/elements/1.1/"
   xmlns:cc="http://creativecommons.org/ns#"
   xmlns:rdf="http://www.w3.org/1999/02/22-rdf-syntax-ns#"
   xmlns:svg="http://www.w3.org/2000/svg"
   xmlns="http://www.w3.org/2000/svg"
   version="1.1"
   width="16"
   height="16">
  <path
     d="m 6.71875,1.65625 c -1.6272944,0 -2.9375,1.3102057 -2.9375,2.9375 0,0.1507469 0.040522,0.3239479 0.0625,0.46875 C 2.3875953,5.2435206 1.25,6.4651085 1.25,7.96875 c 0,0.4965029 0.1214514,0.9648791 0.34375,1.375 L 8.25,2.09375 C 7.8025681,1.8257681 7.2734875,1.65625 6.71875,1.65625 z m 4.03125,2.75 -0.5625,1.28125 1.5625,0 c -0.133677,-0.5514851 -0.50749,-1.0258249 -1,-1.28125 z m 3.46875,2.46875 -3.75,4.0625 1.75,0 C 13.612862,10.9375 14.75,9.8003621 14.75,8.40625 14.75,7.8229291 14.555932,7.3007867 14.21875,6.875 z M 2.4375,10.3125 c 0.4854235,0.38177 1.0832074,0.625 1.75,0.625 l 1.34375,0 0.28125,-0.625 -3.375,0 z"
     style="fill:#ffffff" />
  <path
     d="M 12.014201,-5e-8 3.4678363,9.2695216 l 3.8199659,0 L 3.9857978,16 12.532164,6.7304786 l -3.8199677,0 L 12.014201,-5e-8 z"
     style="fill:#ffffff" />
</svg>
