<?xml version="1.0" encoding="UTF-8" standalone="no"?>
<svg
   xmlns:dc="http://purl.org/dc/elements/1.1/"
   xmlns:cc="http://creativecommons.org/ns#"
   xmlns:rdf="http://www.w3.org/1999/02/22-rdf-syntax-ns#"
   xmlns:svg="http://www.w3.org/2000/svg"
   xmlns="http://www.w3.org/2000/svg"
   version="1.1"
   width="16"
   height="16">
  <g
     transform="translate(-361.0002,243)"
     style="fill:#ffffff">
    <path
       d="m 369.00019,-239.88344 c -2.69705,0 -4.88344,2.1864 -4.88344,4.88345 0,2.69705 2.18639,4.88345 4.88344,4.88345 2.69705,0 4.88345,-2.1864 4.88345,-4.88345 0,-2.69704 -2.1864,-4.88345 -4.88345,-4.88345 z" />
    <path
       d="m 369.0002,-242.5 -0.58602,2.212 1.17203,0 z" />
    <path
       d="m 363.69747,-240.30273 c 0.38324,0.6595 0.76649,1.31899 1.14973,1.97849 0.27625,-0.27625 0.55251,-0.5525 0.82876,-0.82875 -0.6595,-0.38325 -1.31899,-0.76649 -1.97849,-1.14974 z" />
    <path
       d="m 374.30293,-240.30273 -1.9785,1.14974 0.82876,0.82875 z" />
    <path
       d="m 376.5002,-234.99999 -2.212,-0.58602 0,1.17203 z" />
    <path
       d="m 361.5002,-234.99999 c 0.73733,0.19534 1.47466,0.39068 2.21199,0.58602 0,-0.39068 0,-0.78135 0,-1.17203 -0.73733,0.19534 -1.47466,0.39067 -2.21199,0.58601 z" />
    <path
       d="m 374.30293,-229.69727 -1.14974,-1.9785 -0.82876,0.82877 z" />
    <path
       d="m 363.69747,-229.69727 1.97849,-1.14973 -0.82876,-0.82877 z" />
    <path
       d="m 369.0002,-227.5 0.58602,-2.212 -1.17203,0 z" />
  </g>
</svg>
