<?xml version="1.0" encoding="UTF-8" standalone="no"?>
<svg
   xmlns:dc="http://purl.org/dc/elements/1.1/"
   xmlns:cc="http://creativecommons.org/ns#"
   xmlns:rdf="http://www.w3.org/1999/02/22-rdf-syntax-ns#"
   xmlns:svg="http://www.w3.org/2000/svg"
   xmlns="http://www.w3.org/2000/svg"
   version="1.1"
   width="16"
   height="16">
  <path
     d="m 7.772911,1.731336 c -2.486502,0.091296 -4.77783,1.624122 -5.68125,4.10625 -1.190025,3.269556 0.47106,6.909975 3.740625,8.1 2.482119,0.903411 5.166144,0.130464 6.834375,-1.715625 -1.195002,0.38574 -2.52549,0.406485 -3.796875,-0.05625 -3.036024,-1.10502 -4.59252,-4.47336 -3.4875,-7.509375 0.462744,-1.271385 1.326996,-2.257524 2.390625,-2.925 z"
     style="fill:#ffffff" />
  <path
     d="M 9.8983048,5.4237288 9.3630983,3.4504604 7.3898303,3.0508474 9.3630987,2.5156409 9.7627116,0.54237286 10.297918,2.5156413 12.271186,2.9152542 10.297918,3.4504607 z"
     transform="matrix(1.4375,0,0,1.4375,-1.9089001,-0.4820958)"
     style="fill:#ffffff" />
  <path
     d="M 9.8983048,5.4237288 9.3630983,3.4504604 7.3898303,3.0508474 9.3630987,2.5156409 9.7627116,0.54237286 10.297918,2.5156413 12.271186,2.9152542 10.297918,3.4504607 z"
     transform="matrix(0.80555556,0,0,0.80555556,0.92843712,4.2749528)"
     style="fill:#ffffff" />
</svg>
