<?xml version="1.0" encoding="UTF-8" standalone="no"?>
<svg
   xmlns:dc="http://purl.org/dc/elements/1.1/"
   xmlns:cc="http://creativecommons.org/ns#"
   xmlns:rdf="http://www.w3.org/1999/02/22-rdf-syntax-ns#"
   xmlns:svg="http://www.w3.org/2000/svg"
   xmlns="http://www.w3.org/2000/svg"
   version="1.1"
   width="16"
   height="16">
  <g
     transform="translate(-361.0002,243)"
     style="fill:#ffff00">
    <path
       d="m 8,3.125 c -1.6544471,0 -3.1166781,0.8351026 -4,2.09375 l 8,0 C 11.116675,3.960102 9.6544471,3.125 8,3.125 z"
       transform="translate(361.0002,-243)"
       style="fill:#ffffff" />
    <path
       d="m 369.0002,-242.5 -0.58602,2.212 1.17203,0 z"
       style="fill:#ffffff" />
    <path
       d="m 363.69747,-240.30273 c 0.38324,0.6595 0.76649,1.31899 1.14973,1.97849 0.27625,-0.27625 0.55251,-0.5525 0.82876,-0.82875 -0.6595,-0.38325 -1.31899,-0.76649 -1.97849,-1.14974 z"
       style="fill:#ffffff" />
    <path
       d="m 374.30293,-240.30273 -1.9785,1.14974 0.82876,0.82875 z"
       style="fill:#ffffff" />
  </g>
  <path
     d="m 1.7487893,6.6 12.5024217,0"
     style="stroke:#ffffff;stroke-width:1.4;stroke-linecap:round" />
  <path
     d="m 1.7487895,8.8 12.5024215,0"
     style="stroke:#ffffff;stroke-width:1.4;stroke-linecap:round" />
  <path
     d="M 1.7487893,11 14.251211,11"
     style="stroke:#ffffff;stroke-width:1.4;stroke-linecap:round" />
  <path
     d="m 1.7487895,13.2 12.5024215,0"
     style="stroke:#ffffff;stroke-width:1.4;stroke-linecap:round" />
</svg>
