<?xml version="1.0" encoding="UTF-8" standalone="no"?>
<svg
   xmlns:dc="http://purl.org/dc/elements/1.1/"
   xmlns:cc="http://creativecommons.org/ns#"
   xmlns:rdf="http://www.w3.org/1999/02/22-rdf-syntax-ns#"
   xmlns:svg="http://www.w3.org/2000/svg"
   xmlns="http://www.w3.org/2000/svg"
   version="1.1"
   width="16"
   height="16">
  <path
     d="m 13.118284,1.1016949 c 1.485487,0 2.689677,1.4656232 2.689677,3.2736133 0,1.8079902 -1.20419,3.2736134 -2.689677,3.2736134 l -10.0098412,0 c -0.2741672,0 -0.4961237,-0.270144 -0.4961237,-0.6038336 l 0,-0.00126 c 8.387e-4,-0.332972 0.2225496,-0.6025715 0.4961237,-0.6025715 5.5179147,0.00891 5.5209145,0.019647 10.0098412,0.017723 0.945889,0 1.711991,-0.9324248 1.711991,-2.0836688 0,-1.1512441 -0.766102,-2.0849348 -1.711991,-2.0849348 -3.3855839,0.00248 -6.9360854,0.018988 -10.0098412,0.018988 -0.2741672,0 -0.4961237,-0.2701439 -0.4961237,-0.6038335 l 0,-0.00126 C 2.6131562,1.3712964 2.8348687,1.1016949 3.1084428,1.1016949 z"
     id="path3013-3"
     style="fill:#ffffff;fill-opacity:1;fill-rule:nonzero;stroke:none" />
  <path
     d="m 12.983142,3.3753065 c 0.244045,0 0.441328,0.446482 0.442076,0.9979084 l 0,0.00209 c 0,0.5526212 -0.197501,1.000005 -0.442076,1.000005 l -0.327097,0 -8.602653,0 -0.3270971,0 c -0.2445754,0 -0.4420767,-0.4473838 -0.4420767,-1.000005 l 0,-0.00209 C 3.2849668,3.8217885 3.4822486,3.3753065 3.7262949,3.3753065 l 0.3270971,0 8.602653,0 0.327097,0 z"
     id="path3015-2-2-1"
     style="fill:#ffffff;fill-opacity:1;fill-rule:nonzero;stroke:none" />
  <path
     d="m 2.881716,8.3510784 c -1.4854868,0 -2.68967675,1.4656232 -2.68967675,3.2736136 0,1.80799 1.20418995,3.273613 2.68967675,3.273613 l 10.009841,0 c 0.274167,0 0.496124,-0.270144 0.496124,-0.603833 l 0,-0.0013 c -8.39e-4,-0.332968 -0.22255,-0.602568 -0.496124,-0.602568 -6.6461492,0.03088 -6.658175,0.03063 -10.009841,0.01772 -0.9458889,0 -1.7119907,-0.932425 -1.7119907,-2.083669 0,-1.151244 0.7661018,-2.0849349 1.7119907,-2.0849349 3.2871067,0.01824 6.6286424,0.018989 10.009841,0.018989 0.274167,0 0.496124,-0.270144 0.496124,-0.6038336 l 0,-0.00126 C 13.386844,8.62068 13.165131,8.3510784 12.891557,8.3510784 z"
     id="path3013"
     style="fill:#ffffff;fill-opacity:1;fill-rule:nonzero;stroke:none" />
  <path
     d="m 3.0170766,10.624668 c -0.2440463,0 -0.441328,0.446466 -0.4420766,0.997874 l 0,0.0022 c 0,0.552604 0.1975013,0.999973 0.4420766,0.999973 l 0.327097,0 8.6026524,0 0.327097,0 c 0.244575,0 0.442077,-0.447369 0.442077,-0.999973 l 0,-0.0022 c -7.49e-4,-0.551408 -0.198031,-0.997874 -0.442077,-0.997874 l -0.327097,0 -8.6026524,0 -0.327097,0 z"
     id="path3015-2-1"
     style="fill:#ffffff;fill-opacity:1;fill-rule:nonzero;stroke:none" />
</svg>
