<?xml version="1.0" encoding="UTF-8" standalone="no"?>
<svg
   xmlns:dc="http://purl.org/dc/elements/1.1/"
   xmlns:cc="http://creativecommons.org/ns#"
   xmlns:rdf="http://www.w3.org/1999/02/22-rdf-syntax-ns#"
   xmlns:svg="http://www.w3.org/2000/svg"
   xmlns="http://www.w3.org/2000/svg"
   xmlns:sodipodi="http://sodipodi.sourceforge.net/DTD/sodipodi-0.dtd"
   xmlns:inkscape="http://www.inkscape.org/namespaces/inkscape"
   height="16"
   style="display:block"
   version="1.1"
   id="svg2"
   inkscape:version="0.48.5 r10040"
   width="16"
   sodipodi:docname="hipchat.svg">
  <metadata
     id="metadata12">
    <rdf:RDF>
      <cc:Work
         rdf:about="">
        <dc:format>image/svg+xml</dc:format>
        <dc:type
           rdf:resource="http://purl.org/dc/dcmitype/StillImage" />
        <dc:title />
      </cc:Work>
    </rdf:RDF>
  </metadata>
  <defs
     id="defs10" />
  <sodipodi:namedview
     pagecolor="#333333"
     bordercolor="#666666"
     borderopacity="1"
     objecttolerance="10"
     gridtolerance="10"
     guidetolerance="10"
     inkscape:pageopacity="1"
     inkscape:pageshadow="2"
     inkscape:window-width="1366"
     inkscape:window-height="752"
     id="namedview8"
     showgrid="false"
     inkscape:showpageshadow="true"
     showborder="true"
     borderlayer="false"
     inkscape:zoom="28.704946"
     inkscape:cx="8.6542121"
     inkscape:cy="8.769436"
     inkscape:window-x="0"
     inkscape:window-y="0"
     inkscape:window-maximized="1"
     inkscape:current-layer="g3092" />
  <g
     id="g3092"
     transform="matrix(0.01514789,0,0,0.01514789,0.24428032,15.950737)">
    <path
       style="fill:#ffffff"
       d="m 770.125,-547.04059 c -19.97159,0.5348 -32.87885,17.9765 -48.25,28.25 -111.10754,78.4482 -267.80417,86.2591 -386.37158,19.7756 -23.70378,-12.9246 -45.32847,-29.0368 -67.03467,-44.7756 -22.09558,-10.2584 -51.68631,4.7692 -55.3125,29.1875 -4.02545,20.8221 8.08837,40.1334 21.06889,55.2371 43.19895,55.1051 107.66049,90.2602 174.3354,109.081 113.80652,30.8789 242.87104,8.8396 335.84457,-64.4422 28.05802,-22.4673 55.74826,-48.9674 66.53239,-84.1259 4.87909,-24.3904 -15.45883,-49.6308 -40.8125,-48.1875 z"
       id="path4"
       inkscape:connector-curvature="0" />
    <path
       style="fill:#ffffff"
       d="m 507.84863,-956.82613 c -126.83593,0.24069 -254.37232,48.37578 -344.80182,137.97316 -73.201821,72.09423 -117.937775,174.83129 -112.750002,278.41863 4.673445,106.62348 60.333652,207.67111 142.615302,274.28617 107.245,88.46254 252.92113,125.14059 390.11351,106.24004 10.12788,-0.97522 20.40052,-4.9667 30.50791,-3.02385 10.95954,4.49696 20.20353,12.4819 31.32708,16.9271 67.49092,33.56398 142.47416,55.102208 218.39465,52.980613 27.27276,-1.450733 50.49614,-29.622933 44.19006,-56.674643 -3.33151,-16.4369 -16.59986,-28.72459 -31.20694,-35.57237 -25.54254,-17.29099 -47.8072,-42.25942 -55.31696,-72.62741 4.91746,-5.29826 12.04249,-7.96173 16.89533,-13.34662 78.72065,-66.69198 131.93552,-165.85423 136.00856,-270.08585 4.20322,-101.82211 -38.30973,-202.99813 -109.98555,-274.56511 -92.37059,-93.61984 -225.1775,-142.60976 -355.99113,-140.92986 z m 7.09556,115.29533 c 97.23582,0.31574 196.06947,35.31026 266.2481,103.43947 54.3567,53.01671 87.78596,130.66627 78.70979,207.47771 -8.63944,75.83927 -54.45636,145.13429 -116.98704,187.95534 -14.01358,11.12881 -33.1448,18.10146 -40.79182,35.53977 -7.45468,21.08781 1.44,43.28842 9.05097,62.9898 2.98617,8.06325 6.91606,15.67273 10.85851,23.29458 -33.54942,-14.8686 -62.4619,-37.68533 -93.17037,-57.45306 -19.2132,-7.49512 -39.27314,2.24184 -58.61083,3.72977 -110.4621,15.39219 -228.81927,-13.35606 -313.65149,-86.72086 -55.20524,-47.97016 -93.43459,-117.88635 -93.97872,-192.02915 -0.53978,-72.84853 33.82883,-143.72055 87.86039,-191.83655 70.90199,-65.38446 168.77773,-97.06725 264.46251,-96.38682 z"
       id="path6"
       inkscape:connector-curvature="0" />
  </g>
</svg>
