<?xml version="1.0" encoding="UTF-8" standalone="no"?>
<svg
   xmlns:dc="http://purl.org/dc/elements/1.1/"
   xmlns:cc="http://creativecommons.org/ns#"
   xmlns:rdf="http://www.w3.org/1999/02/22-rdf-syntax-ns#"
   xmlns:svg="http://www.w3.org/2000/svg"
   xmlns="http://www.w3.org/2000/svg"
   xmlns:sodipodi="http://sodipodi.sourceforge.net/DTD/sodipodi-0.dtd"
   xmlns:inkscape="http://www.inkscape.org/namespaces/inkscape"
   height="16"
   style="display:block"
   version="1.1"
   id="svg2"
   inkscape:version="0.48.5 r10040"
   width="16"
   sodipodi:docname="hipchat-attention.svg">
  <metadata
     id="metadata12">
    <rdf:RDF>
      <cc:Work
         rdf:about="">
        <dc:format>image/svg+xml</dc:format>
        <dc:type
           rdf:resource="http://purl.org/dc/dcmitype/StillImage" />
        <dc:title />
      </cc:Work>
    </rdf:RDF>
  </metadata>
  <defs
     id="defs10" />
  <sodipodi:namedview
     pagecolor="#333333"
     bordercolor="#666666"
     borderopacity="1"
     objecttolerance="10"
     gridtolerance="10"
     guidetolerance="10"
     inkscape:pageopacity="1"
     inkscape:pageshadow="2"
     inkscape:window-width="1366"
     inkscape:window-height="752"
     id="namedview8"
     showgrid="false"
     inkscape:showpageshadow="true"
     showborder="true"
     borderlayer="false"
     inkscape:zoom="20.297462"
     inkscape:cx="4.2801116"
     inkscape:cy="8.181924"
     inkscape:window-x="0"
     inkscape:window-y="0"
     inkscape:window-maximized="1"
     inkscape:current-layer="g3092" />
  <g
     id="g3092"
     transform="matrix(0.01514789,0,0,0.01514789,0.24428032,15.950737)">
    <path
       style="fill:#ff0000"
       d="m 770.125,-547.04058 c -19.97159,0.53475 -32.87885,17.97645 -48.25,28.25 -111.10754,78.44815 -267.80417,86.25912 -386.37158,19.77559 -23.70378,-12.92459 -45.32847,-29.03681 -67.03467,-44.77559 -22.09558,-10.25842 -51.68631,4.76917 -55.3125,29.1875 -4.02545,20.82212 8.08837,40.13337 21.06889,55.23708 43.19895,55.10507 107.66049,90.2602 174.3354,109.08101 113.80652,30.87888 242.87104,8.83962 335.84457,-64.44218 28.05802,-22.4673 55.74826,-48.96743 66.53239,-84.12591 4.87909,-24.39042 -15.45883,-49.63082 -40.8125,-48.1875 z"
       id="path4"
       inkscape:connector-curvature="0" />
    <path
       style="fill:#ffffff"
       d="m 507.84863,-956.82613 c -126.83593,0.24069 -254.37232,48.37578 -344.80182,137.97316 -73.201821,72.09423 -117.937775,174.83129 -112.750002,278.41863 4.673445,106.62348 60.333652,207.67111 142.615302,274.28617 107.245,88.46254 252.92113,125.14059 390.11351,106.24004 10.12788,-0.97522 20.40052,-4.9667 30.50791,-3.02385 10.95954,4.49696 20.20353,12.4819 31.32708,16.9271 67.49092,33.56398 142.47416,55.102208 218.39465,52.980613 27.27276,-1.450733 50.49614,-29.622933 44.19006,-56.674643 -3.33151,-16.4369 -16.59986,-28.72459 -31.20694,-35.57237 -25.54254,-17.29099 -47.8072,-42.25942 -55.31696,-72.62741 4.91746,-5.29826 12.04249,-7.96173 16.89533,-13.34662 78.72065,-66.69198 131.93552,-165.85423 136.00856,-270.08585 4.20322,-101.82211 -38.30973,-202.99813 -109.98555,-274.56511 -92.37059,-93.61984 -225.1775,-142.60976 -355.99113,-140.92986 z m 10.38886,115.29533 c 94.874,1.08801 190.51366,35.089 259.90914,100.452 55.59961,52.79652 90.27643,130.36557 81.98074,207.88059 -8.06318,80.65995 -58.56898,153.59224 -126.07096,196.54384 -11.76061,8.01253 -25.58101,15.67531 -31.66374,29.14665 -7.9525,20.82749 1.03893,43.10378 8.41725,62.71053 3.27946,8.19835 7.19422,16.1346 11.25271,23.993 -33.26784,-14.81963 -62.55395,-37.55667 -93.02067,-57.42312 -20.05066,-7.71262 -41.00254,2.63494 -61.22004,3.96182 -104.39057,13.89429 -215.28206,-11.27586 -298.58762,-76.62393 -54.49148,-42.69574 -95.72328,-105.11889 -104.57715,-174.72438 -10.69705,-78.59527 22.32503,-159.78579 79.33852,-213.34576 72.14532,-70.28888 174.36272,-104.0685 274.24182,-102.57124 z"
       id="path6"
       inkscape:connector-curvature="0" />
  </g>
</svg>
