<?xml version="1.0" encoding="UTF-8" standalone="no"?>
<!-- Created with Inkscape (http://www.inkscape.org/) -->

<svg
   xmlns:dc="http://purl.org/dc/elements/1.1/"
   xmlns:cc="http://creativecommons.org/ns#"
   xmlns:rdf="http://www.w3.org/1999/02/22-rdf-syntax-ns#"
   xmlns:svg="http://www.w3.org/2000/svg"
   xmlns="http://www.w3.org/2000/svg"
   xmlns:sodipodi="http://sodipodi.sourceforge.net/DTD/sodipodi-0.dtd"
   xmlns:inkscape="http://www.inkscape.org/namespaces/inkscape"
   id="svg4190"
   version="1.1"
   inkscape:version="0.48.5 r10040"
   width="16"
   height="16"
   sodipodi:docname="viper-qt.svg">
  <metadata
     id="metadata4196">
    <rdf:RDF>
      <cc:Work
         rdf:about="">
        <dc:format>image/svg+xml</dc:format>
        <dc:type
           rdf:resource="http://purl.org/dc/dcmitype/StillImage" />
        <dc:title></dc:title>
      </cc:Work>
    </rdf:RDF>
  </metadata>
  <defs
     id="defs4194">
    <marker
       inkscape:stockid="CurveIn"
       orient="auto"
       refY="0.0"
       refX="0.0"
       id="CurveIn"
       style="overflow:visible">
      <path
         id="path5266"
         d="M 4.6254930,-5.0456926 C 1.8654930,-5.0456926 -0.37450702,-2.8056926 -0.37450702,-0.045692580 C -0.37450702,2.7143074 1.8654930,4.9543074 4.6254930,4.9543074"
         style="fill-rule:evenodd;stroke:#000000;stroke-width:1.0pt;fill:none"
         transform="scale(0.6)" />
    </marker>
  </defs>
  <sodipodi:namedview
     pagecolor="#000000"
     bordercolor="#666666"
     borderopacity="1"
     objecttolerance="10"
     gridtolerance="10"
     guidetolerance="10"
     inkscape:pageopacity="0.27843137"
     inkscape:pageshadow="2"
     inkscape:window-width="640"
     inkscape:window-height="480"
     id="namedview4192"
     showgrid="false"
     inkscape:zoom="32"
     inkscape:cx="7.8382027"
     inkscape:cy="8.5521341"
     inkscape:current-layer="svg4190"
     showguides="true"
     inkscape:guide-bbox="true"
     inkscape:snap-object-midpoints="true"
     inkscape:object-nodes="true"
     inkscape:snap-bbox="true"
     inkscape:snap-bbox-midpoints="true"
     inkscape:snap-bbox-edge-midpoints="true"
     inkscape:bbox-nodes="true"
     inkscape:snap-center="true"
     inkscape:snap-midpoints="true"
     inkscape:snap-smooth-nodes="true" />
  <g
     id="g5522"
     transform="matrix(0.56562423,-0.56562423,0.56562423,0.56562423,-2.9800538,7.6144098)"
     style="fill:none;stroke:#ffffff;stroke-opacity:1;stroke-width:2.50027048000000018;stroke-miterlimit:4;stroke-dasharray:none;stroke-linecap:butt;stroke-dashoffset:0">
    <path
       sodipodi:nodetypes="cssssssc"
       inkscape:connector-curvature="0"
       id="path5058"
       d="m 11.54329,10.521222 c 0,0 0,0 10e-7,-1.729546 0,-1.0914712 -1.223889,-2.31536 -2.3153605,-2.31536 -6.0813073,0 0,0 -6.0813073,0 -1.0914713,0 -2.31536005,1.2238886 -2.31536016,2.3153602 3.5e-7,2.5106308 0,0 3.5e-7,2.5106308 -1.4e-7,1.091472 1.22388861,2.315361 2.31536011,2.31536 2.1200886,0 2.1200886,0 2.1200886,0"
       style="fill:none;stroke:#ffffff;stroke-width:2.50027048000000018;stroke-linecap:butt;stroke-linejoin:miter;stroke-miterlimit:4;stroke-opacity:1;stroke-dasharray:none;stroke-dashoffset:0" />
    <path
       sodipodi:nodetypes="cssssssc"
       inkscape:connector-curvature="0"
       id="path5058-5"
       d="m 7.1872785,9.572761 c 0,0 0,0 -1.2e-6,1.729546 1e-7,1.091472 1.2238886,2.315361 2.3153612,2.31536 6.0813065,0 0,0 6.0813065,0 1.091472,0 2.315361,-1.223887 2.31536,-2.31536 0,-2.510631 0,0 0,-2.510631 1e-6,-1.0914716 -1.223888,-2.3153607 -2.31536,-2.3153601 -2.120088,0 -2.120088,0 -2.120088,0"
       style="fill:none;stroke:#ffffff;stroke-width:2.50027048000000018;stroke-linecap:butt;stroke-linejoin:miter;stroke-miterlimit:4;stroke-opacity:1;stroke-dasharray:none;stroke-dashoffset:0" />
  </g>
</svg>
