<?xml version="1.0" encoding="UTF-8" standalone="no"?>
<svg
   xmlns:dc="http://purl.org/dc/elements/1.1/"
   xmlns:cc="http://creativecommons.org/ns#"
   xmlns:rdf="http://www.w3.org/1999/02/22-rdf-syntax-ns#"
   xmlns:svg="http://www.w3.org/2000/svg"
   xmlns="http://www.w3.org/2000/svg"
   xmlns:sodipodi="http://sodipodi.sourceforge.net/DTD/sodipodi-0.dtd"
   xmlns:inkscape="http://www.inkscape.org/namespaces/inkscape"
   viewBox="0 0 48 48"
   height="48"
   width="48"
   id="svg2"
   version="1.1"
   sodipodi:docname="aero2.svg"
   inkscape:version="0.92.2 5c3e80d, 2017-08-06">
  <sodipodi:namedview
     pagecolor="#b4b4b4"
     bordercolor="#666666"
     borderopacity="1"
     objecttolerance="10"
     gridtolerance="10"
     guidetolerance="10"
     inkscape:pageopacity="0"
     inkscape:pageshadow="2"
     inkscape:window-width="640"
     inkscape:window-height="480"
     id="namedview8"
     showgrid="false"
     inkscape:zoom="6.9532167"
     inkscape:cx="24.536144"
     inkscape:cy="20.42571"
     inkscape:current-layer="svg2" />
  <metadata
     id="metadata8">
    <rdf:RDF>
      <cc:Work
         rdf:about="">
        <dc:format>image/svg+xml</dc:format>
        <dc:type
           rdf:resource="http://purl.org/dc/dcmitype/StillImage" />
        <dc:title></dc:title>
      </cc:Work>
    </rdf:RDF>
  </metadata>
  <defs
     id="defs6" />
  <g
     id="g14"
     transform="matrix(1.099572,0,0,1.0621717,0.80085578,-3.859898)">
    <path
       id="path22"
       d="m 27.973194,25.451337 c -0.07941,-0.208205 0.141875,-1.846189 0.366777,-2.714904 0.253558,-0.979405 1.119521,-2.572332 1.882759,-3.463313 0.367897,-0.429469 1.669327,-1.757507 2.892068,-2.951192 2.641883,-2.579106 2.773985,-2.791325 2.775907,-4.459451 0.0021,-1.752438 -0.497853,-2.5047616 -1.73272,-2.6077895 -0.790383,-0.065944 -1.467046,0.260004 -1.739658,0.8379915 -0.224438,0.475846 -0.42172,1.441394 -0.42172,2.063996 0,0.24078 -0.06815,0.494683 -0.151433,0.564226 -0.102695,0.08575 -0.742443,0.103223 -1.987797,0.05429 l -1.836363,-0.07215 0.08295,-0.946878 c 0.253498,-2.8936574 1.395595,-4.4012724 3.833886,-5.0608835 0.965295,-0.2611333 2.782988,-0.3158829 3.873243,-0.1166633 1.910098,0.3490269 3.107021,1.1823668 3.782026,2.6331808 0.329577,0.7083728 0.366374,0.906364 0.409344,2.202546 0.03442,1.038395 -0.0043,1.656557 -0.14293,2.281917 -0.350046,1.57902 -0.628015,1.924273 -4.840251,6.011868 -1.572765,1.526226 -2.297523,2.555831 -1.905606,2.707141 0.111026,0.04287 1.750121,0.08203 3.642433,0.08705 l 3.44057,0.0091 v 1.521279 1.521277 l -6.080612,0.0303 c -5.114387,0.02548 -6.090504,0.0043 -6.142874,-0.132946 z"
       style="fill:#ffffff;stroke-width:0.11666671"
       inkscape:connector-curvature="0" />
    <path
       style="fill:#ffffff;stroke-width:0.15875569"
       d="m 14.775102,11.647424 c -1.862717,-3.3e-5 -3.752133,0.139835 -4.8938346,0.419245 -0.5917409,0.144816 -1.6520043,0.539348 -2.3561881,0.877054 -2.793942,1.339892 -4.3646897,3.995792 -4.7281417,7.994575 l -0.1119048,1.234097 h 3.7327424 c 2.8779019,0 3.7343598,-0.04559 3.7386178,-0.199048 0.02021,-0.728632 0.489104,-2.718823 0.771897,-3.276515 0.670151,-1.321606 2.417187,-2.091386 4.254245,-1.874161 1.385515,0.163831 2.336904,0.847756 2.901183,2.085338 0.342473,0.751114 0.402224,2.7956 0.11036,3.775691 -0.401588,1.348545 -1.374613,1.832329 -6.460505,3.211825 -3.1422269,0.852296 -4.3661762,1.264458 -5.6045253,1.887535 -1.7805152,0.895862 -3.1197137,2.543381 -3.7880768,4.660209 -0.3020003,0.956493 -0.3409707,6.130677 -0.3409707,6.130677 0.036182,0.569277 0.1804614,1.418164 0.3205676,1.886602 0.1401046,0.46844 0.4803741,1.259591 0.4825441,1.267066 0.1138136,0.392013 1.1392123,1.87843 1.7979001,2.474104 0.3720795,0.336483 1.1142508,0.82024 1.6492075,1.074859 0.5349567,0.254619 1.0793576,0.46106 1.2099341,0.459054 -0.1088137,0.04417 1.9960344,0.264022 2.6115294,0.264361 0.516864,3.19e-4 0.853639,-0.0092 0.960775,-0.02364 0.371258,0.0086 1.486688,-0.133286 1.729891,-0.244146 0.110309,-0.05028 2.698384,-1.176073 3.432578,-1.867006 0.429554,-0.404244 1.07162,-1.186888 1.426634,-1.739182 0.355013,-0.552295 0.705428,-1.004259 0.778698,-1.004259 0.07327,0 0.167179,0.161228 0.208973,0.358286 0.0418,0.197057 0.462468,3.90598 0.506045,3.976916 0.04357,0.07094 1.872765,0.109849 4.064748,0.08646 3.43055,-0.0366 3.982071,-0.07586 3.962119,-0.281466 -0.01274,-0.131372 -0.137345,-0.666212 -0.276981,-1.188378 C 26.511448,42.750866 26.324724,38.295156 26.211353,28.462312 26.099414,18.753446 26.017238,17.620285 25.325387,16.24139 24.36639,14.33006 22.240868,12.804423 19.508799,12.06667 18.473926,11.787234 16.637811,11.647458 14.775094,11.647426 Z m 3.605999,17.013934 -0.0037,2.209433 c -0.0058,3.430908 -0.23355,5.845476 -0.628769,6.666862 -0.401877,0.835223 -1.37941,1.760903 -2.276124,2.155315 -0.840423,0.369653 -2.225931,0.500324 -3.007834,0.283644 -0.852224,-0.236168 -1.73922,-1.179831 -2.086317,-2.219385 -0.37811,-1.132444 -0.3987254,-3.786621 -0.03586,-4.619467 0.364695,-0.837039 1.33861,-1.857585 2.172564,-2.276299 1.006833,-0.505515 4.787299,-1.982976 5.377933,-2.101822 z"
       id="path18"
       inkscape:connector-curvature="0" />
  </g>
</svg>
