<?xml version="1.0" encoding="UTF-8" standalone="no"?>
<svg
   xmlns:svg="http://www.w3.org/2000/svg"
   xmlns="http://www.w3.org/2000/svg"
   xmlns:sodipodi="http://sodipodi.sourceforge.net/DTD/sodipodi-0.dtd"
   xmlns:inkscape="http://www.inkscape.org/namespaces/inkscape"
   viewBox="0 0 48 48"
   height="48"
   width="48"
   version="1.1"
   id="svg2"
   inkscape:version="0.91 r13725"
   sodipodi:docname="anki.svg">
  <sodipodi:namedview
     pagecolor="#b8b8b8"
     bordercolor="#666666"
     borderopacity="1"
     objecttolerance="10"
     gridtolerance="10"
     guidetolerance="10"
     inkscape:pageopacity="0"
     inkscape:pageshadow="2"
     inkscape:window-width="640"
     inkscape:window-height="480"
     id="namedview8"
     showgrid="false"
     inkscape:zoom="6.9532167"
     inkscape:cx="73.32176"
     inkscape:cy="39.156171"
     inkscape:current-layer="svg2" />
  <defs
     id="defs6" />
  <path
     style="fill:#ffffff;fill-opacity:1"
     d="m 30.84694,2.5612244 c 3.391351,0.6658708 6.993748,2.510999 9.428572,5.1632655 1.763283,2.2601508 3.008244,4.7608931 3.479592,7.9693861 0.354126,2.675679 0.06311,5.707781 -0.785715,7.857143 -1.053305,3.210417 -3.402154,5.501946 -5.387754,8.081633 -1.207532,2.323051 -1.306456,5.796831 -1.010205,8.979592 0.35705,1.923104 0.836256,3.472192 1.908162,5.387756 -21.339843,0 0,0 -21.339843,0 0.07139,-2.539593 0.173869,-4.307397 -0.884646,-5.612245 -2.55433,-0.703186 -7.2602878,1.74676 -8.6428584,-1.346939 C 6.870279,37.422279 8.5958025,35.902531 7.9489787,34.55102 6.4949561,34.036301 6.8460578,32.751468 8.3979585,32.642857 7.6079251,32.191407 5.8730356,32.003664 6.8265298,30.510204 7.9820721,28.275952 3.0943163,29.233715 4.3571418,26.918367 5.6264845,24.742482 7.0455968,22.664045 8.3979585,20.520406 6.8310447,19.468813 8.056196,17.043781 8.2857138,15.469385 9.1245944,12.200733 10.640312,9.5629305 12.663266,7.163263 c 2.266373,-2.3978354 6.099802,-3.9789244 8.530613,-4.6020411 3.18507,-0.6122249 6.197435,-0.6425347 9.653061,2.5e-6 z M 28.938777,30.061224 c 0.305385,-1.078428 0.225891,-3.662518 1.459182,-2.020408 2.005667,1.839322 4.826011,-0.437882 4.826533,-2.693877 2.13999,0.818618 4.008674,-0.828158 3.70408,-3.142859 2.595511,-1.388935 2.088011,-6.101323 0.44898,-7.969387 C 39.176157,13.428435 39.721196,11.415014 38.255104,11.20408 37.737678,10.198871 37.514092,8.768511 36.010205,8.8469363 35.482175,7.5736545 33.86948,6.9141731 32.642859,7.2755078 32.073785,5.3324566 29.089324,6.5688641 27.928572,5.367345 25.906101,5.2867604 25.101835,6.3523824 23.102041,5.8163238 21.239902,5.7782492 21.16425,7.6542135 19.17347,6.9387736 17.848738,7.2053711 17.028591,8.2356077 16.142857,8.9591819 14.231009,8.9503643 14.812089,11.369746 13.22449,11.65306 c -1.078635,1.312984 -1.963996,4.24668 -0.112244,5.27551 1.144806,0.115506 0.448215,1.936148 1.571427,2.244899 1.438743,0.806824 4.214848,0.64142 5.27551,1.234692 -0.808958,3.095747 2.730227,3.288791 4.602043,3.928573 2.005846,1.083123 1.943399,3.827258 2.918366,5.72449 z"
     id="path3388"
     inkscape:connector-curvature="0"
     sodipodi:nodetypes="cccccccccccccccccccccccccccccccccccccc" />
</svg>
