<?xml version="1.0" encoding="UTF-8" standalone="no"?>
<!-- Created with Inkscape (http://www.inkscape.org/) -->

<svg
   xmlns:dc="http://purl.org/dc/elements/1.1/"
   xmlns:cc="http://creativecommons.org/ns#"
   xmlns:rdf="http://www.w3.org/1999/02/22-rdf-syntax-ns#"
   xmlns:svg="http://www.w3.org/2000/svg"
   xmlns="http://www.w3.org/2000/svg"
   xmlns:sodipodi="http://sodipodi.sourceforge.net/DTD/sodipodi-0.dtd"
   xmlns:inkscape="http://www.inkscape.org/namespaces/inkscape"
   id="svg2"
   version="1.1"
   inkscape:version="0.48.5 r10040"
   width="16"
   height="16"
   sodipodi:docname="keepassx.svg"
   inkscape:export-filename="/home/arek/.icons/Faba-Mono/symbolic/apps/keepassx.png"
   inkscape:export-xdpi="180"
   inkscape:export-ydpi="180">
  <metadata
     id="metadata8">
    <rdf:RDF>
      <cc:Work
         rdf:about="">
        <dc:format>image/svg+xml</dc:format>
        <dc:type
           rdf:resource="http://purl.org/dc/dcmitype/StillImage" />
        <dc:title />
      </cc:Work>
    </rdf:RDF>
  </metadata>
  <defs
     id="defs6" />
  <sodipodi:namedview
     pagecolor="#333333"
     bordercolor="#666666"
     borderopacity="1"
     objecttolerance="10"
     gridtolerance="10"
     guidetolerance="10"
     inkscape:pageopacity="1"
     inkscape:pageshadow="2"
     inkscape:window-width="1366"
     inkscape:window-height="752"
     id="namedview4"
     showgrid="false"
     inkscape:object-nodes="true"
     inkscape:snap-bbox="true"
     inkscape:bbox-paths="false"
     inkscape:snap-object-midpoints="true"
     inkscape:bbox-nodes="false"
     showguides="true"
     inkscape:guide-bbox="true"
     inkscape:zoom="14.75"
     inkscape:cx="-0.045896985"
     inkscape:cy="4.8862239"
     inkscape:window-x="0"
     inkscape:window-y="0"
     inkscape:window-maximized="1"
     inkscape:current-layer="svg2" />
  <path
     style="fill:#ffffff"
     d="M 2.4070918,14.880792 C 1.592308,14.167694 1.4531456,14.035646 1.327714,13.856569 1.0116463,13.40533 1.0117173,12.681473 1.3278715,12.174429 1.3992457,12.059945 2.5762339,10.700796 3.9433816,9.1540867 6.1989086,6.60232 6.4272591,6.3321408 6.4091211,6.2366209 6.3981575,6.1787296 6.3541276,5.9487415 6.3113395,5.7255458 6.21648,5.2307475 6.2148873,4.730687 6.3064781,4.1989059 6.3979169,3.6680659 6.754767,2.8159237 7.0543513,2.4129457 7.5534524,1.7416871 8.0988941,1.3149472 8.8867813,0.97929016 9.6532218,0.65276997 10.333431,0.56162187 11.200144,0.66930346 c 0.305547,0.0379596 0.491469,0.0900869 0.928912,0.26042546 0.738481,0.28753318 1.163479,0.57703438 1.669905,1.13737528 0.63787,0.7057879 1.039526,1.6709638 1.101572,2.6470528 0.170895,2.688554 -2.184413,4.8912829 -4.866637,4.551378 L 9.7274658,9.2267121 9.1907642,9.8315758 C 8.8955863,10.164255 8.6408753,10.442187 8.6247527,10.449208 8.6086254,10.456252 8.2700771,10.39582 7.8724157,10.314975 7.4747522,10.234135 7.0899138,10.1741 7.01721,10.181578 c -0.1588686,0.01635 -0.4119581,0.185887 -0.5139909,0.344323 -0.1550268,0.24067 -0.1408599,0.382223 0.1142034,1.15783 0.134882,0.40991 0.238723,0.761877 0.2307518,0.782142 -0.018235,0.04636 -0.5559933,0.647838 -0.5940112,0.66439 -0.015434,0.0067 -0.3664976,-0.05456 -0.7801261,-0.136171 -0.5368498,-0.105931 -0.7945358,-0.137817 -0.9005395,-0.111426 -0.3026216,0.07535 -0.5809892,0.454211 -0.5497093,0.74815 0.00776,0.07252 0.1138584,0.423079 0.2358602,0.779031 0.2498932,0.729069 0.2561249,0.695157 -0.1573168,0.855497 -0.3445432,0.133625 -0.6825906,0.143579 -1.0368653,0.03053 -0.2623189,-0.0837 -0.3247297,-0.122987 -0.6584105,-0.415086 z M 11.389512,5.6732299 C 12.231068,5.7420473 13.05782,5.1230478 13.230036,4.2951991 13.346713,3.7343065 13.179005,3.1201055 12.793582,2.6967894 12.553037,2.4325968 12.116716,2.2012963 11.776171,2.1574423 10.846345,2.0377002 9.9584838,2.6444857 9.7782938,3.5228397 c -0.119114,0.5806513 0.0437,1.1752715 0.4348752,1.5881855 0.329188,0.3474878 0.696323,0.5229505 1.176343,0.5622051 z"
     id="path3904"
     inkscape:connector-curvature="0"
     sodipodi:nodetypes="cscscsccsscssccccccccsccscsccccsssssss" />
</svg>
