<svg xmlns="http://www.w3.org/2000/svg" width="16" height="16">
  <path d="M7.478 3.51a2.949 2.63 0 0 1 3.087 2.468c0 1.23-.366 1.687-1.543 2.495a2.69 2.4 0 0 0-.364.276c-.047.054-.03.028-.03.027.006.463-.456.878-.969.878-.51 0-.975-.415-.968-.878 0-.442.217-.828.454-1.096.237-.27.476-.454.696-.605a4.843 3.703 0 0 0 .666-.576c.09-.099.125-.27.12-.384v-.028A.963.859 0 0 0 7.6 5.265c-.546.029-.938.384-.908.878H4.754C4.665 4.701 5.887 3.59 7.478 3.51m.181 7.02c.535 0 .969.394.969.88a.976.87 0 0 1-.969.877c-.535 0-.968-.393-.968-.878s.433-.878.968-.878"/>
  <path d="M5.72.001v1.176H3.632c-.273.054-.818.28-.818 1.143v11.537c0 1.152.969 1.143.969 1.143h7.748c.969 0 .969-1.144.969-1.144V2.32s0-1.143-.969-1.143H9.594V0ZM4.449 2.254h6.296c.775 0 .786.975.786.975v9.719s-.011.976-.786.976H4.57s-.786-.002-.786-.976V3.23c0-.732.447-.931.665-.976"/>
</svg>
