<svg xmlns="http://www.w3.org/2000/svg" width="16" height="16">
  <path d="M9.836 15.185a.815.815 0 0 0 1.63 0v-1.317H9.839v1.317zm0-14.37v1.317h1.629V.815a.815.815 0 0 0-1.629 0m-2.651 0v1.317h1.63V.815a.815.815 0 0 0-1.63 0m0 14.37a.815.815 0 0 0 1.63 0v-1.317h-1.63ZM4.535.815v1.317h1.629V.815a.815.815 0 0 0-1.629 0m0 14.37a.815.815 0 0 0 1.63 0v-1.317h-1.63ZM0 10.65c0 .45.365.815.815.815h1.317V9.836H.815A.814.814 0 0 0 0 10.65m15.185-.814h-1.317v1.629h1.317a.815.815 0 0 0 0-1.629M0 8c0 .45.365.815.815.815h1.317v-1.63H.815A.815.815 0 0 0 0 8m15.185-.815h-1.317v1.63h1.317a.815.815 0 0 0 0-1.63M0 5.35c0 .45.365.816.815.816h1.317V4.535H.815A.815.815 0 0 0 0 5.35m15.185-.815h-1.317v1.629h1.317a.815.815 0 0 0 0-1.629m-12.27 7.701c0 .469.38.85.849.85h8.472a.85.85 0 0 0 .85-.85V3.764a.85.85 0 0 0-.85-.85H3.764a.85.85 0 0 0-.85.85z"/>
</svg>
