<svg xmlns="http://www.w3.org/2000/svg" width="16" height="16">
  <g transform="translate(-361 268.003)">
    <path d="M368.998-265.003c-2.618 0-4.998 2.382-4.998 5s2.38 5 4.998 5 5.002-2.382 5.002-5-2.384-5-5.002-5"/>
    <rect width="2" height="2" x="368" y="-268.003" ry=".5"/>
    <rect width="2" height="2" x="368" y="-254.003" ry=".5"/>
    <rect width="2" height="2" x="443.773" y="69.072" ry=".5" transform="rotate(-45)"/>
    <rect width="2" height="2" x="443.773" y="83.072" ry=".5" transform="rotate(-45)"/>
    <rect width="2" height="2" x="259.003" y="361" ry=".5" transform="rotate(-90)"/>
    <rect width="2" height="2" x="259.003" y="375" ry=".5" transform="rotate(-90)"/>
    <rect width="2" height="2" x="-78.072" y="436.773" ry=".5" transform="rotate(-135)"/>
    <rect width="2" height="2" x="-78.072" y="450.773" ry=".5" transform="rotate(-135)"/>
  </g>
</svg>
