<?xml version="1.0" encoding="UTF-8" standalone="no"?>
<svg
   xmlns:dc="http://purl.org/dc/elements/1.1/"
   xmlns:cc="http://creativecommons.org/ns#"
   xmlns:rdf="http://www.w3.org/1999/02/22-rdf-syntax-ns#"
   xmlns:svg="http://www.w3.org/2000/svg"
   xmlns="http://www.w3.org/2000/svg"
   xmlns:sodipodi="http://sodipodi.sourceforge.net/DTD/sodipodi-0.dtd"
   xmlns:inkscape="http://www.inkscape.org/namespaces/inkscape"
   version="1.1"
   id="svg160"
   width="16"
   height="16"
   viewBox="0 0 16 16"
   sodipodi:docname="thermometer-high-symbolic.svg"
   inkscape:version="1.0.2 (e86c870879, 2021-01-15)">
  <metadata
     id="metadata166">
    <rdf:RDF>
      <cc:Work
         rdf:about="">
        <dc:format>image/svg+xml</dc:format>
        <dc:type
           rdf:resource="http://purl.org/dc/dcmitype/StillImage" />
        <dc:title></dc:title>
      </cc:Work>
    </rdf:RDF>
  </metadata>
  <defs
     id="defs164" />
  <sodipodi:namedview
     pagecolor="#ffffff"
     bordercolor="#666666"
     borderopacity="1"
     objecttolerance="10"
     gridtolerance="10"
     guidetolerance="10"
     inkscape:pageopacity="0"
     inkscape:pageshadow="2"
     inkscape:window-width="640"
     inkscape:window-height="480"
     id="namedview162"
     showgrid="false"
     inkscape:zoom="11.368933"
     inkscape:cx="18.418317"
     inkscape:cy="8.2090838"
     inkscape:current-layer="g168"
     inkscape:document-rotation="0" />
  <g
     inkscape:groupmode="layer"
     inkscape:label="Image"
     id="g168">
    <path
       style="fill:#ffffff;stroke:none;stroke-width:0.0268376"
       d="M 7.8177269,1.0182556 C 6.7570249,1.1626472 5.9237713,1.8062579 5.6285287,2.8586379 5.4548106,3.4779153 5.5633671,4.2328566 5.5633671,4.871457 c 0,1.3060776 0.00261,2.6122094 0,3.9182876 C 5.5624804,9.1288377 5.255914,9.3262279 5.0827078,9.5948717 4.8226753,9.9981342 4.6257697,10.460035 4.5549997,10.936751 c -0.2362544,1.591953 0.6077356,3.221611 2.1355472,3.82127 0.625451,0.245484 1.272797,0.290249 1.932307,0.196694 C 10.69509,14.660789 11.88075,12.460027 11.363375,10.534188 11.259941,10.149148 11.067542,9.7815813 10.833195,9.4606845 10.698686,9.2765251 10.457632,9.1127886 10.448318,8.8702577 10.396548,7.5238959 10.447881,6.165243 10.447881,4.8177818 c 0,-0.6384394 0.09729,-1.3663822 -0.07367,-1.9859819 C 10.076259,1.7519602 8.9797009,0.86008538 7.8177969,1.0182556 m 0.161026,1.3942071 c 1.346735,-0.068758 1.073502,1.6903659 1.073502,2.539507 v 3.1131601 c 0,0.4911816 -0.07235,1.0448947 0.0039,1.5296355 0.0273,0.1734245 0.251707,0.2719183 0.371726,0.3804229 0.226188,0.2044488 0.410293,0.4638058 0.524621,0.7468628 0.5482131,1.357391 -0.467592,2.859142 -1.920149,2.894997 -1.505775,0.03717 -2.5183857,-1.564739 -1.961128,-2.921834 0.112983,-0.275166 0.294703,-0.520918 0.5119,-0.7222004 0.121546,-0.1126375 0.343762,-0.1992154 0.371753,-0.3781681 0.07188,-0.4597008 0.0039,-0.9834903 0.0039,-1.4492031 V 5.1666706 c 0,-0.9159404 -0.330802,-2.6852618 1.01983,-2.7542079 m -0.05368,3.5200714 c -0.270283,0.062478 -0.268375,0.3247351 -0.268375,0.5491775 V 8.17248 9.4606845 c 0,0.189097 0.04104,0.4328903 -0.0085,0.6157885 -0.03718,0.137274 -0.256887,0.177691 -0.367189,0.243417 -0.209764,0.125063 -0.398274,0.318293 -0.510427,0.536349 -0.530553,1.031825 0.381119,2.265388 1.530252,2.021703 0.966101,-0.204879 1.423948,-1.384069 0.838486,-2.182728 -0.125435,-0.171118 -0.277094,-0.303909 -0.462761,-0.406188 -0.103027,-0.05677 -0.278731,-0.08416 -0.313513,-0.212553 -0.06411,-0.2366004 -0.0085,-0.5585976 -0.0085,-0.8036513 V 7.5552158 c 0,-0.425859 0.07162,-0.9239109 -0.0091,-1.3418795 -0.03819,-0.197659 -0.22063,-0.3269625 -0.420275,-0.2808022 z"
       id="path172" />
    <path
       style="fill:#ff0000;stroke:none;stroke-width:0.0268376"
       d="m 7.9177143,5.9325341 c -0.270283,0.062478 -0.268375,0.3247351 -0.268375,0.5491775 V 8.17248 9.4606845 c 0,0.189097 0.04104,0.4328903 -0.0085,0.6157885 -0.03718,0.137274 -0.256886,0.177691 -0.367189,0.243417 -0.209764,0.125063 -0.398274,0.318293 -0.510427,0.536349 -0.530551,1.031825 0.38112,2.265388 1.530253,2.021703 0.9661,-0.204879 1.423949,-1.384069 0.838486,-2.182728 -0.125436,-0.171118 -0.277095,-0.303909 -0.462761,-0.406188 -0.103027,-0.05677 -0.278732,-0.08416 -0.313512,-0.212553 -0.06411,-0.2366004 -0.0085,-0.5585976 -0.0085,-0.8036513 V 7.5552158 c 0,-0.425859 0.07162,-0.9239109 -0.0091,-1.3418795 -0.03819,-0.197659 -0.220632,-0.3269625 -0.420276,-0.2808022 z"
       id="path172-3"
       sodipodi:nodetypes="cscsccccsccssccc" />
  </g>
</svg>
