<?xml version="1.0" encoding="UTF-8" standalone="no"?>
<svg
   xmlns:dc="http://purl.org/dc/elements/1.1/"
   xmlns:cc="http://creativecommons.org/ns#"
   xmlns:rdf="http://www.w3.org/1999/02/22-rdf-syntax-ns#"
   xmlns:svg="http://www.w3.org/2000/svg"
   xmlns="http://www.w3.org/2000/svg"
   xmlns:sodipodi="http://sodipodi.sourceforge.net/DTD/sodipodi-0.dtd"
   xmlns:inkscape="http://www.inkscape.org/namespaces/inkscape"
   version="1.1"
   id="svg160"
   width="16"
   height="16"
   viewBox="0 0 16 16"
   sodipodi:docname="thermometer-symbolic.svg"
   inkscape:version="1.0.2 (e86c870879, 2021-01-15)">
  <metadata
     id="metadata166">
    <rdf:RDF>
      <cc:Work
         rdf:about="">
        <dc:format>image/svg+xml</dc:format>
        <dc:type
           rdf:resource="http://purl.org/dc/dcmitype/StillImage" />
        <dc:title></dc:title>
      </cc:Work>
    </rdf:RDF>
  </metadata>
  <defs
     id="defs164" />
  <sodipodi:namedview
     pagecolor="#ffffff"
     bordercolor="#666666"
     borderopacity="1"
     objecttolerance="10"
     gridtolerance="10"
     guidetolerance="10"
     inkscape:pageopacity="0"
     inkscape:pageshadow="2"
     inkscape:window-width="640"
     inkscape:window-height="480"
     id="namedview162"
     showgrid="false"
     inkscape:zoom="8.7615839"
     inkscape:cx="28.792266"
     inkscape:cy="23.541655"
     inkscape:current-layer="g168"
     inkscape:document-rotation="0" />
  <g
     inkscape:groupmode="layer"
     inkscape:label="Image"
     id="g168">
    <path
       style="fill:#ffffff;stroke:none;stroke-width:0.0268376"
       d="m 7.8177258,1.0182556 c -1.060701,0.1443916 -1.8939545,0.7880023 -2.1891972,1.8403823 -0.1737181,0.6192773 -0.065161,1.3742187 -0.065161,2.012819 0,1.3060776 0.00261,2.6122095 0,3.9182877 C 5.5624808,9.1288376 5.2559144,9.3262278 5.0827082,9.5948719 4.8226757,9.998134 4.6257701,10.460036 4.5550001,10.936751 c -0.2362544,1.591953 0.6077356,3.221611 2.1355467,3.82127 0.62545,0.245484 1.272797,0.290249 1.932306,0.196693 C 10.69509,14.660789 11.880749,12.460027 11.363375,10.534187 11.259941,10.149149 11.067542,9.7815815 10.833195,9.4606843 10.698686,9.276525 10.457632,9.1127885 10.448318,8.8702576 10.396548,7.5238958 10.44788,6.165243 10.44788,4.8177818 c 0,-0.6384393 0.09729,-1.3663822 -0.07367,-1.9859819 C 10.076259,1.7519602 8.9796998,0.86008538 7.8177958,1.0182556 m 0.161027,1.3942071 c 1.346734,-0.068758 1.073502,1.6903658 1.073502,2.5395069 v 3.1131602 c 0,0.4911816 -0.07235,1.0448946 0.0039,1.5296353 0.0273,0.1734245 0.251707,0.2719182 0.371726,0.3804229 0.226188,0.204449 0.410292,0.463806 0.52462,0.746863 0.5482142,1.357392 -0.467591,2.859142 -1.920148,2.894998 -1.505775,0.03717 -2.5183857,-1.564739 -1.961129,-2.921835 0.112984,-0.275167 0.294704,-0.520918 0.511901,-0.7222002 0.121546,-0.1126375 0.343761,-0.1992158 0.371753,-0.3781685 0.07187,-0.4597007 0.0039,-0.9834901 0.0039,-1.4492029 V 5.1666706 c 0,-0.9159404 -0.330802,-2.6852618 1.01983,-2.7542079 m -0.05368,3.5200714 c -0.270283,0.062478 -0.268375,0.3247351 -0.268375,0.5491775 v 1.6907683 1.2882044 c 0,0.1890975 0.04104,0.4328902 -0.0085,0.6157877 -0.03719,0.137275 -0.256886,0.177693 -0.367189,0.243417 -0.209764,0.125064 -0.398274,0.318295 -0.510427,0.53635 -0.530552,1.031825 0.38112,2.265387 1.530253,2.021702 0.9661,-0.204878 1.423948,-1.384068 0.838486,-2.182727 -0.125436,-0.171117 -0.277095,-0.30391 -0.462761,-0.406188 -0.103027,-0.05676 -0.278732,-0.08416 -0.313513,-0.212554 -0.06411,-0.2365996 -0.0085,-0.5585968 -0.0085,-0.8036504 V 7.5552157 c 0,-0.425859 0.07163,-0.9239108 -0.0091,-1.3418794 -0.03819,-0.197659 -0.220631,-0.3269626 -0.420275,-0.2808022 z"
       id="path172" />
  </g>
</svg>
