<svg xmlns="http://www.w3.org/2000/svg" width="16" height="16">
  <path d="M1.6 2C0 2 0 3.5 0 3.5v9S0 14 1.6 14h8.334v-2h-1.4v-2H16V3.5C16 2 14.4 2 14.4 2Zm.533 2h11.734v5H2.133Zm0 6h5.334v2H2.133Z" style="opacity:.5"/>
  <path d="M11 11v1c0 .276.1.538.281.719l.781.781-.78.781A1 1 0 0 0 11 15v1h1c.276 0 .538-.1.719-.281l.781-.781.781.78c.181.182.443.282.719.282h1v-1c0-.276-.1-.538-.281-.719l-.782-.781.782-.781A1.02 1.02 0 0 0 16 12v-1h-1c-.276 0-.538.1-.719.281l-.781.781-.781-.78A1 1 0 0 0 12 11z" style="fill:red"/>
</svg>
