<?xml version="1.0" encoding="UTF-8" standalone="no"?>
<svg
   xmlns:dc="http://purl.org/dc/elements/1.1/"
   xmlns:cc="http://creativecommons.org/ns#"
   xmlns:rdf="http://www.w3.org/1999/02/22-rdf-syntax-ns#"
   xmlns:svg="http://www.w3.org/2000/svg"
   xmlns="http://www.w3.org/2000/svg"
   version="1.1"
   width="16"
   height="16">
  <path
     d="m 8.3439028,8.0333423 c -1.1342003,0 -2.0624926,0.9282924 -2.0624926,2.0624927 0,0.150282 -0.00511,0.296911 0.025714,0.438288 C 5.3192384,10.685434 4.554,11.542426 4.554,12.570833 c 0,1.1342 0.9283094,2.062501 2.0625096,2.062501 l 5.7749894,0 c 1.134201,0 2.062501,-0.928301 2.062501,-2.062501 0,-1.1342 -0.9283,-2.062493 -2.062501,-2.062493 -0.07084,0 -0.137144,0.01873 -0.206249,0.02571 1.37e-4,-0.0087 0,-0.01712 0,-0.02571 0,-0.9063927 -0.743611,-1.6500041 -1.650004,-1.6500041 -0.169942,0 -0.335167,0.028865 -0.489843,0.077313 C 9.6737933,8.3868247 9.0527576,8.0333508 8.3438772,8.0333508 z"
     style="fill:#ffffff" />
  <path
     d="M 7.78125,1.6875 C 5.294748,1.778796 3.02842,3.330372 2.125,5.8125 1.3466889,7.9508851 1.7805554,10.239874 3.09375,11.90625 3.4664332,11.04162 4.2605792,10.396761 5.21875,10.25 5.177309,10.059928 5.15625,9.8582957 5.15625,9.65625 5.15625,9.2750326 5.2341704,8.9251883 5.375,8.59375 4.9385646,7.3556352 4.9228037,5.9532566 5.40625,4.625 5.868994,3.353615 6.717621,2.354976 7.78125,1.6875 z"
     style="fill:#ffffff" />
  <path
     d="M 9.8983048,5.4237288 9.3630983,3.4504604 7.3898303,3.0508474 9.3630987,2.5156409 9.7627116,0.54237286 10.297918,2.5156413 12.271186,2.9152542 10.297918,3.4504607 z"
     transform="matrix(1.4375,0,0,1.4375,-1.9089,-0.48209588)"
     style="fill:#ffffff" />
</svg>
