<?xml version="1.0" encoding="UTF-8" standalone="no"?>
<svg
   xmlns:dc="http://purl.org/dc/elements/1.1/"
   xmlns:cc="http://creativecommons.org/ns#"
   xmlns:rdf="http://www.w3.org/1999/02/22-rdf-syntax-ns#"
   xmlns:svg="http://www.w3.org/2000/svg"
   xmlns="http://www.w3.org/2000/svg"
   version="1.1"
   width="16"
   height="16">
  <path
     d="m 6.734357,1.671839 c -1.630971,0 -2.953125,1.322154 -2.953125,2.953125 0,0.151092 0.03087,0.303264 0.05274,0.448245 -1.45827,0.180252 -2.583981,1.419714 -2.583981,2.926755 0,1.586988 1.251234,2.884455 2.821293,2.953125 0.291195,-0.611019 0.782145,-1.107126 1.397457,-1.397457 0.06867,-1.57005 1.366146,-2.821293 2.953125,-2.821293 0.801954,0 1.524483,0.324891 2.056644,0.84375 0.01809,-3.78e-4 0.03447,0 0.05274,0 1.11546,0 2.035881,0.738432 2.373057,1.740231 0.50391,0.08055 0.96003,0.278676 1.344726,0.580086 0.310959,-0.412623 0.500976,-0.917622 0.500976,-1.476567 0,-1.39797 -1.13328,-2.53125 -2.53125,-2.53125 -0.165654,0 -0.317844,0.02232 -0.474606,0.05274 -0.176607,-0.986472 -1.019376,-1.740231 -2.056644,-1.740231 -0.009,0 -0.01746,-1.08e-4 -0.02628,0 C 9.458657,2.769569 8.223911,1.671848 6.734474,1.671848 z"
     style="fill:#ffffff" />
  <path
     d="m 8.3439033,8.0333419 c -1.1342005,0 -2.0624928,0.928293 -2.0624928,2.0624931 0,0.150282 -0.00511,0.296911 0.025714,0.438288 -0.9878858,0.151311 -1.7531242,1.008303 -1.7531242,2.03671 0,1.1342 0.9283094,2.062501 2.0625096,2.062501 l 5.7749891,0 c 1.134201,0 2.062501,-0.928301 2.062501,-2.062501 0,-1.1342 -0.9283,-2.062493 -2.062501,-2.062493 -0.07084,0 -0.137144,0.01873 -0.206249,0.02571 1.37e-4,-0.0087 0,-0.01712 0,-0.02571 0,-0.9063921 -0.743611,-1.6500041 -1.650004,-1.6500041 -0.169942,0 -0.335167,0.02886 -0.489843,0.07731 C 9.6737934,8.3868219 9.0527584,8.0333479 8.3438773,8.0333479 z"
     style="fill:#ffffff" />
</svg>
