<?xml version="1.0" encoding="UTF-8" standalone="no"?>
<svg
   xmlns:dc="http://purl.org/dc/elements/1.1/"
   xmlns:cc="http://creativecommons.org/ns#"
   xmlns:rdf="http://www.w3.org/1999/02/22-rdf-syntax-ns#"
   xmlns:svg="http://www.w3.org/2000/svg"
   xmlns="http://www.w3.org/2000/svg"
   version="1.1"
   width="16"
   height="16">
  <path
     d="M 7,3 C 4.61379,3 2.6875,4.92629 2.6875,7.3125 c 0,1.2550373 0.5510142,2.3676882 1.40625,3.15625 0.2571715,-0.115996 0.5252328,-0.205999 0.8125,-0.25 -0.0475,-0.21758 -0.0625,-0.45618 -0.0625,-0.6875 0,-1.74566 1.44183,-3.15625 3.1875,-3.15625 1.09106,0 2.05305,0.53028 2.625,1.375 0.198674,-0.062252 0.408943,-0.1130595 0.625,-0.125 C 11.294503,7.5211868 11.3125,7.4189469 11.3125,7.3125 11.3125,4.92629 9.3862,3 7,3 z"
     style="fill:#ffffff" />
  <path
     d="m 7.00424,0.6822 -0.51848,1.95706 1.03695,0 z"
     style="fill:#ffffff" />
  <path
     d="M 2.31267,2.62622 C 2.65174,3.20972 2.99082,3.79319 3.32989,4.37668 3.5743,4.13228 3.81872,3.88786 4.06313,3.64346 3.47964,3.30438 2.89616,2.96531 2.31268,2.62622 z"
     style="fill:#ffffff" />
  <path
     d="M 11.6958,2.62622 9.94533,3.64346 10.67858,4.37668 z"
     style="fill:#ffffff" />
  <path
     d="m 13.63983,7.31781 -1.95706,-0.51849 0,1.03695 z"
     style="fill:#ffffff" />
  <path
     d="m 0.36864,7.31781 c 0.65235,0.17283 1.3047,0.34565 1.95705,0.51848 0,-0.34565 0,-0.6913 0,-1.03695 -0.65235,0.17283 -1.3047,0.34564 -1.95705,0.51847 z"
     style="fill:#ffffff" />
  <path
     d="M 2.31267,12.00937 4.06313,10.99215 3.32989,10.2589 z"
     style="fill:#ffffff" />
  <path
     d="m 8.3439031,8.0333422 c -1.1342004,0 -2.0624927,0.9282924 -2.0624927,2.0624928 0,0.150282 -0.00511,0.296911 0.025714,0.438288 -0.9878858,0.151311 -1.7531242,1.008303 -1.7531242,2.03671 0,1.1342 0.9283094,2.062501 2.0625096,2.062501 l 5.7749892,0 c 1.134201,0 2.062501,-0.928301 2.062501,-2.062501 0,-1.1342 -0.9283,-2.062493 -2.062501,-2.062493 -0.07084,0 -0.137144,0.01873 -0.206249,0.02571 1.37e-4,-0.0087 0,-0.01712 0,-0.02571 0,-0.9063923 -0.743611,-1.6500042 -1.650004,-1.6500042 -0.169942,0 -0.335167,0.028865 -0.489843,0.077313 C 9.6737932,8.3868246 9.0527579,8.0333507 8.3438775,8.0333507 z"
     style="fill:#ffffff" />
</svg>
