<?xml version="1.0" encoding="UTF-8" standalone="no"?>
<svg
   xmlns:osb="http://www.openswatchbook.org/uri/2009/osb"
   xmlns:dc="http://purl.org/dc/elements/1.1/"
   xmlns:cc="http://creativecommons.org/ns#"
   xmlns:rdf="http://www.w3.org/1999/02/22-rdf-syntax-ns#"
   xmlns:svg="http://www.w3.org/2000/svg"
   xmlns="http://www.w3.org/2000/svg"
   width="16"
   version="1.1"
   style="enable-background:new"
   id="svg7384"
   height="16">
  <metadata
     id="metadata90">
    <rdf:RDF>
      <cc:Work
         rdf:about="">
        <dc:format>image/svg+xml</dc:format>
        <dc:type
           rdf:resource="http://purl.org/dc/dcmitype/StillImage" />
        <dc:title>Moka Symbolic Icon Theme</dc:title>
      </cc:Work>
    </rdf:RDF>
  </metadata>
  <title
     id="title8473">Moka Symbolic Icon Theme</title>
  <defs
     id="defs7386">
    <linearGradient
       osb:paint="solid"
       id="linearGradient5606">
      <stop
         style="stop-color:#000000;stop-opacity:1;"
         offset="0"
         id="stop5608" />
    </linearGradient>
    <filter
       id="filter7554"
       color-interpolation-filters="sRGB">
      <feBlend
         mode="darken"
         in2="BackgroundImage"
         id="feBlend7556" />
    </filter>
  </defs>
  <g
     transform="translate(-261.0002,368.00336)"
     style="display:inline"
     id="layer9">
    <path
       id="path6156-1"
       d="m 267.2002,-367.00336 0,1.09866 c -0.64629,0 -1.3096,0 -1.94062,0 -0.25313,0.0505 -0.75938,0.26008 -0.75938,1.06726 l 0,10.76682 c 0,1.07623 0.9,1.06726 0.9,1.06726 l 7.2,0 c 0.9,0 0.9,-1.06726 0.9,-1.06726 l 0,-10.76682 c 0,0 0,-1.06726 -0.9,-1.06726 -0.59468,0 -1.1965,0 -1.8,0 l 0,-1.09866 z"
       style="display:inline;fill:#ffffff;fill-opacity:1;stroke:none;enable-background:new" />
  </g>
  <g
     transform="translate(-261.0002,368.00336)"
     style="display:inline;filter:url(#filter7554)"
     id="layer10" />
  <g
     transform="translate(-19.999998,-248.99664)"
     style="display:inline"
     id="layer1" />
  <g
     transform="translate(-261.0002,368.00336)"
     style="display:inline"
     id="layer14" />
  <g
     transform="translate(-261.0002,368.00336)"
     style="display:inline"
     id="layer15" />
  <g
     transform="translate(-261.0002,368.00336)"
     style="display:inline"
     id="g71291" />
  <g
     transform="translate(-19.999998,-98.99664)"
     style="display:inline"
     id="layer2" />
  <g
     transform="translate(-19.999998,-98.99664)"
     style="display:inline"
     id="g6058" />
  <g
     transform="translate(-261.0002,368.00336)"
     style="display:inline"
     id="layer12" />
</svg>
