<?xml version="1.0" encoding="UTF-8" standalone="no"?>
<svg
   xmlns:osb="http://www.openswatchbook.org/uri/2009/osb"
   xmlns:dc="http://purl.org/dc/elements/1.1/"
   xmlns:cc="http://creativecommons.org/ns#"
   xmlns:rdf="http://www.w3.org/1999/02/22-rdf-syntax-ns#"
   xmlns:svg="http://www.w3.org/2000/svg"
   xmlns="http://www.w3.org/2000/svg"
   xmlns:sodipodi="http://sodipodi.sourceforge.net/DTD/sodipodi-0.dtd"
   xmlns:inkscape="http://www.inkscape.org/namespaces/inkscape"
   height="16.000002"
   id="svg7384"
   style="enable-background:new"
   version="1.1"
   width="16.000013"
   sodipodi:docname="touchpad-enabled-symbolic.svg"
   inkscape:version="0.92.4 5da689c313, 2019-01-14">
  <sodipodi:namedview
     pagecolor="#ffffff"
     bordercolor="#666666"
     borderopacity="1"
     objecttolerance="10"
     gridtolerance="10"
     guidetolerance="10"
     inkscape:pageopacity="0"
     inkscape:pageshadow="2"
     inkscape:window-width="640"
     inkscape:window-height="480"
     id="namedview11"
     showgrid="false"
     inkscape:zoom="14.749998"
     inkscape:cx="8.0000067"
     inkscape:cy="8.000001"
     inkscape:current-layer="svg7384" />
  <metadata
     id="metadata90">
    <rdf:RDF>
      <cc:Work
         rdf:about="">
        <dc:format>image/svg+xml</dc:format>
        <dc:type
           rdf:resource="http://purl.org/dc/dcmitype/StillImage" />
        <dc:title>Moka Symbolic Icon Theme</dc:title>
      </cc:Work>
    </rdf:RDF>
  </metadata>
  <title
     id="title8473">Moka Symbolic Icon Theme</title>
  <defs
     id="defs7386">
    <linearGradient
       id="linearGradient5606"
       osb:paint="solid">
      <stop
         id="stop5608"
         offset="0"
         style="stop-color:#000000;stop-opacity:1;" />
    </linearGradient>
    <filter
       id="filter7554"
       style="color-interpolation-filters:sRGB">
      <feBlend
         id="feBlend7556"
         in2="BackgroundImage"
         mode="darken" />
    </filter>
  </defs>
  <path
     id="path23849-6-5"
     d="M 2,2 C 2,2 1.8862219,2.00629 1.7285156,2.035156 1.4204752,2.080391 1.1870553,2.1893611 1.015625,2.3398436 0.983193,2.3648126 0.954674,2.3949896 0.923828,2.4238276 0.89499,2.4546736 0.864812,2.4831926 0.839844,2.5156246 0.6893613,2.6870553 0.5803915,2.9204752 0.5351562,3.2285156 0.5062895,3.3862219 0.5,3.5 0.5,3.5 v 9 c 0,0 0,1.5 1.5,1.5 h 3.25 5.5 3.25 c 1.5,0 1.5,-1.5 1.5,-1.5 v -9 c 0,0 -0.0063,-0.1137781 -0.03516,-0.2714844 C 15.41961,2.9204752 15.310635,2.6870553 15.160152,2.515625 15.135182,2.483193 15.105002,2.454674 15.076172,2.423828 15.045322,2.39499 15.016812,2.364812 14.984372,2.339844 14.812945,2.1893613 14.579525,2.0803915 14.271484,2.0351562 14.113778,2.0062895 14,2 14,2 Z m 0.5,2 h 11 v 5 h -11 z m 0,6 h 5 v 2 h -2 -3 z m 6,0 h 2 3 v 2 h -3 -2 z"
     style="opacity:0.6;fill:#ffffff;fill-opacity:1;stroke:none" />
</svg>
