<?xml version="1.0" encoding="UTF-8" standalone="no"?>
<svg
   xmlns:osb="http://www.openswatchbook.org/uri/2009/osb"
   xmlns:dc="http://purl.org/dc/elements/1.1/"
   xmlns:cc="http://creativecommons.org/ns#"
   xmlns:rdf="http://www.w3.org/1999/02/22-rdf-syntax-ns#"
   xmlns:svg="http://www.w3.org/2000/svg"
   xmlns="http://www.w3.org/2000/svg"
   xmlns:sodipodi="http://sodipodi.sourceforge.net/DTD/sodipodi-0.dtd"
   xmlns:inkscape="http://www.inkscape.org/namespaces/inkscape"
   height="16.000002"
   id="svg7384"
   style="enable-background:new"
   version="1.1"
   width="16.000013"
   sodipodi:docname="touchpad-disabled-symbolic.svg"
   inkscape:version="0.92.4 5da689c313, 2019-01-14">
  <sodipodi:namedview
     pagecolor="#ffffff"
     bordercolor="#666666"
     borderopacity="1"
     objecttolerance="10"
     gridtolerance="10"
     guidetolerance="10"
     inkscape:pageopacity="0"
     inkscape:pageshadow="2"
     inkscape:window-width="640"
     inkscape:window-height="480"
     id="namedview77"
     showgrid="false"
     inkscape:zoom="14.749998"
     inkscape:cx="8.0000067"
     inkscape:cy="8.000001"
     inkscape:current-layer="svg7384" />
  <metadata
     id="metadata90">
    <rdf:RDF>
      <cc:Work
         rdf:about="">
        <dc:format>image/svg+xml</dc:format>
        <dc:type
           rdf:resource="http://purl.org/dc/dcmitype/StillImage" />
        <dc:title>Moka Symbolic Icon Theme</dc:title>
      </cc:Work>
    </rdf:RDF>
  </metadata>
  <title
     id="title8473">Moka Symbolic Icon Theme</title>
  <defs
     id="defs7386">
    <linearGradient
       id="linearGradient5606"
       osb:paint="solid">
      <stop
         id="stop5608"
         offset="0"
         style="stop-color:#000000;stop-opacity:1;" />
    </linearGradient>
    <filter
       id="filter7554"
       style="color-interpolation-filters:sRGB">
      <feBlend
         id="feBlend7556"
         in2="BackgroundImage"
         mode="darken" />
    </filter>
  </defs>
  <path
     style="opacity:0.35;fill:#bebebe;fill-opacity:1;stroke:none"
     id="path23849-6-5"
     d="M 2,2 C 0.5,2 0.5,3.5 0.5,3.5 v 9 c 0,0 0,1.5 1.5,1.5 l 7.8135605,0 c 0,-0.412687 0,-1.48174 0,-2 L 8.5,12 v -2 h 7 V 3.5 C 15.5,2 14,2 14,2 Z m 0.5,2 h 11 v 5 h -11 z m 0,6 h 5 v 2 h -5 z" />
  <path
     style="display:inline;fill:#ff0000;fill-opacity:1;stroke:none;enable-background:new"
     id="path2987-7-9-8-5-1-5"
     d="m 10.99999,11 0,1 c 0,0.27614 0.10029,0.53779 0.28125,0.71875 L 12.06249,13.5 11.28124,14.28125 C 11.10028,14.46221 10.99999,14.72386 10.99999,15 l 0,1 1,0 c 0.27614,0 0.53779,-0.10029 0.71875,-0.28125 l 0.78125,-0.78125 0.78125,0.78125 C 14.4622,15.89971 14.72385,16 14.99999,16 l 1,0 0,-1 c 0,-0.27614 -0.10029,-0.53779 -0.28125,-0.71875 L 14.93749,13.5 15.71874,12.71875 C 15.8997,12.53779 15.99999,12.27614 15.99999,12 l 0,-1 -1,0 c -0.27614,0 -0.53779,0.10029 -0.71875,0.28125 L 13.49999,12.0625 12.71874,11.28125 C 12.53778,11.10029 12.27613,11 11.99999,11 l -1,0 z" />
</svg>
