<?xml version="1.0" encoding="UTF-8" standalone="no"?>
<svg
   xmlns:dc="http://purl.org/dc/elements/1.1/"
   xmlns:cc="http://creativecommons.org/ns#"
   xmlns:rdf="http://www.w3.org/1999/02/22-rdf-syntax-ns#"
   xmlns:svg="http://www.w3.org/2000/svg"
   xmlns="http://www.w3.org/2000/svg"
   version="1.1"
   width="16"
   height="16">
  <path
     d="m 6.71875,1.65625 c -1.6272946,0 -2.9375,1.3102057 -2.9375,2.9375 0,0.1507469 0.040522,0.3239479 0.0625,0.46875 C 2.3875953,5.2435206 1.25,6.4651085 1.25,7.96875 1.25,8.3755736 1.3188009,8.7716391 1.46875,9.125 1.9439695,8.913569 2.4463152,8.78125 3,8.78125 c 1.5086193,0 2.813275,0.8884729 3.4375,2.15625 l 1.0625,0 c 0.4944339,-0.304066 1.0957278,-0.5 1.71875,-0.5 0.2218567,0 0.4488511,0.01677 0.65625,0.0625 C 9.783458,10.205683 9.71875,9.8869394 9.71875,9.5625 c 0,-1.7303436 1.394656,-3.125 3.125,-3.125 0.432586,0 0.843915,0.091458 1.21875,0.25 C 13.599934,6.1920923 12.947231,5.875 12.21875,5.875 c -0.147054,0 -0.265915,0.03818 -0.40625,0.0625 -0.08458,-0.9678304 -0.917585,-1.75 -1.90625,-1.75 -0.08422,0 -0.168646,0.02062 -0.25,0.03125 C 9.463925,2.7749438 8.213618,1.65625 6.71875,1.65625 z"
     style="fill:#ffffff" />
  <circle
     cx="5"
     cy="14"
     r="1"
     transform="matrix(2.4727203,0,0,2.4727203,-9.3532603,-21.991791)"
     style="fill:#ffffff" />
  <circle
     cx="5"
     cy="14"
     r="1"
     transform="matrix(1.9453864,0,0,1.9453864,3.1208385,-17.659295)"
     style="fill:#ffffff" />
  <circle
     cx="5"
     cy="14"
     r="1"
     transform="matrix(2.0172956,0,0,2.0172956,-0.88210495,-14.54323)"
     style="fill:#ffffff" />
</svg>
